<?xml version="1.0" encoding="UTF-8"?>
<svg version="1.1" xmlns="http://www.w3.org/2000/svg" width="206" height="177">
<path d="M0 0 C67.98 0 135.96 0 206 0 C206 58.41 206 116.82 206 177 C138.02 177 70.04 177 0 177 C0 118.59 0 60.18 0 0 Z " fill="#FEFDFB" transform="translate(0,0)"/>
<path d="M0 0 C0.68043297 -0.00085442 1.36086593 -0.00170885 2.06191808 -0.00258917 C4.3466693 -0.00423901 6.63134744 0.00126932 8.91609192 0.00672913 C10.55198159 0.00701113 12.18787139 0.006853 13.82376099 0.00628662 C18.26973358 0.00599916 22.71567931 0.01188758 27.16164565 0.01886058 C31.80613682 0.02510269 36.45062857 0.0256986 41.09512329 0.02688599 C49.89235561 0.02999677 58.68957554 0.03820676 67.4868024 0.04823548 C77.50119002 0.05940446 87.51557823 0.06490905 97.52997053 0.06993091 C118.13239877 0.08038957 138.73481586 0.09798413 159.3372345 0.12025452 C158.54101943 5.18217699 156.26249631 8.29062095 153.1497345 12.24525452 C152.04841736 13.67673381 150.94820177 15.1090611 149.84895325 16.54212952 C149.27193665 17.2904303 148.69492004 18.03873108 148.10041809 18.80970764 C145.16139208 22.66112583 142.31877485 26.58252112 139.4622345 30.49525452 C134.24527393 37.60916052 128.89532018 44.6053439 123.45588684 51.55018616 C119.60763805 56.46847544 115.82265548 61.42827912 112.0872345 66.43275452 C104.03880538 77.21255692 95.78990405 87.83340299 87.52497864 98.44764709 C83.17478371 104.03633592 78.84936798 109.64339718 74.53645325 115.26087952 C71.48626783 119.22666233 68.41518237 123.17599681 65.3372345 127.12025452 C64.23353406 123.80915322 64.41049809 121.87276503 64.7747345 118.43275452 C64.87657043 117.43888733 64.97840637 116.44502014 65.08332825 115.42103577 C65.16711731 114.66177795 65.25090637 113.90252014 65.3372345 113.12025452 C65.9972345 113.12025452 66.6572345 113.12025452 67.3372345 113.12025452 C67.35141418 112.44865295 67.36559387 111.77705139 67.38020325 111.08509827 C67.7543077 103.2491266 69.09914905 95.8362677 70.7747345 88.18275452 C70.99218323 87.18816223 71.20963196 86.19356995 71.43367004 85.1688385 C72.50857344 80.38973965 73.65950801 75.73205152 75.3372345 71.12025452 C70.20238357 73.24363891 65.2977447 75.62501631 60.3997345 78.24525452 C59.66247131 78.63704895 58.92520813 79.02884338 58.16560364 79.43251038 C53.15801465 82.10746113 48.20756667 84.87289793 43.2747345 87.68275452 C37.23941137 91.12061573 31.11200964 94.30552334 24.87556458 97.36244202 C20.45230023 99.53500137 16.15913702 101.85528253 11.938797 104.40541077 C11.14602356 104.75925842 11.14602356 104.75925842 10.3372345 105.12025452 C9.3472345 104.62525452 9.3472345 104.62525452 8.3372345 104.12025452 C10.89990889 100.25635521 13.49985978 96.42520282 16.1497345 92.62025452 C21.09638766 85.50098317 25.97174909 78.33333389 30.84431458 71.16322327 C32.06693243 69.3662744 33.29272932 67.5714841 34.52180481 65.77894592 C35.74159945 63.99256029 36.94914782 62.19775633 38.14485168 60.39515686 C43.30492111 52.74006211 48.64822756 48.22228395 56.7122345 43.80775452 C57.4026886 43.42458069 58.0931427 43.04140686 58.80451965 42.6466217 C67.23588074 38.0102317 75.86339481 33.76002543 84.52864075 29.58119202 C85.43485168 29.14033264 86.34106262 28.69947327 87.2747345 28.24525452 C88.04688293 27.87658264 88.81903137 27.50791077 89.61457825 27.12806702 C91.51014914 26.22958163 91.51014914 26.22958163 92.3372345 24.12025452 C87.66044569 24.63332032 87.66044569 24.63332032 83.19514465 26.01673889 C79.15759812 27.57574371 75.01261574 28.44217221 70.798172 29.40150452 C60.11297082 31.89161572 49.53750308 34.70303504 38.9622345 37.62025452 C37.08918171 38.1339575 35.2160515 38.64737826 33.34284973 39.16053772 C22.95973595 42.00814695 12.58365742 44.88115262 2.20832825 47.75697327 C1.13252502 48.05503876 0.0567218 48.35310425 -1.05168152 48.66020203 C-6.28341259 50.10997851 -11.5144933 51.56201867 -16.74430847 53.01869202 C-18.64289949 53.54606903 -20.54149929 54.07341444 -22.44010925 54.60072327 C-23.30269852 54.84183334 -24.16528778 55.08294342 -25.05401611 55.33135986 C-28.90575065 56.3994643 -32.72320458 57.41874367 -36.6627655 58.12025452 C-35.08567485 52.94310353 -32.92778255 48.17736125 -30.6002655 43.30775452 C-30.20468445 42.47534241 -29.80910339 41.6429303 -29.40153503 40.78529358 C-26.40170096 34.52941185 -23.21475957 28.3913906 -19.91203308 22.29090881 C-16.99499731 16.86731643 -14.37649303 11.33942737 -11.9571991 5.67591858 C-11.2681196 4.12153318 -10.47312015 2.61500194 -9.6627655 1.12025452 C-6.23497755 -0.02234147 -3.61628602 -0.00272927 0 0 Z " fill="#FC6F1A" transform="translate(46.66276550292969,-0.1202545166015625)"/>
<path d="M0 0 C0.99 0.495 0.99 0.495 2 1 C-2.68860612 17.56384621 -2.68860612 17.56384621 -5.0625 23.125 C-7.78086965 29.51594253 -9.31542595 36.2796248 -11 43 C-11.66 43 -12.32 43 -13 43 C-13.0928125 44.8253125 -13.0928125 44.8253125 -13.1875 46.6875 C-13.35321924 49.94664504 -13.99141049 50.98981752 -16.1484375 53.546875 C-19.12912811 56.11108555 -21.93418787 57.78499657 -25.4375 59.5625 C-26.75599905 60.24195738 -28.0736518 60.92305857 -29.390625 61.60546875 C-30.11443359 61.97849121 -30.83824219 62.35151367 -31.58398438 62.73583984 C-36.32148724 65.21469896 -40.99961299 67.80392496 -45.6875 70.375 C-47.5660077 71.40437348 -49.44489084 72.43306224 -51.32421875 73.4609375 C-52.5321106 74.12295166 -52.5321106 74.12295166 -53.7644043 74.79833984 C-55.82495257 75.90590986 -57.90161504 76.96625667 -60 78 C-53.0457638 76.73169354 -46.33180924 75.02399415 -39.5625 73 C-33.23855467 71.14561834 -27.02882805 69.4612345 -20.50537109 68.45751953 C-18.14751989 68.02693941 -15.96435937 67.44030015 -13.6796875 66.72265625 C-6.59590091 64.55298247 0.54739467 62.59903487 7.6875 60.625 C10.87373325 59.74361727 14.0599176 58.86205789 17.24609375 57.98046875 C18.08935211 57.74729446 18.93261047 57.51412018 19.80142212 57.27388 C25.64559677 55.65640048 31.4859107 54.02550405 37.32453918 52.38812256 C41.58351017 51.19445855 45.84375515 50.00538085 50.10415649 48.8168335 C52.19079214 48.23357224 54.27687965 47.64834619 56.36239624 47.06109619 C59.30785776 46.23206277 62.2552436 45.41022442 65.203125 44.58984375 C66.0757045 44.34236893 66.948284 44.0948941 67.8473053 43.83992004 C72.90454988 42.44137027 77.77690314 41.52133101 83 41 C82.18740234 42.62519531 81.37477315 44.25037487 80.56201172 45.87548828 C79.84437019 47.31110129 79.12726146 48.74698074 78.41064453 50.18310547 C76.5853385 53.83928006 74.75324506 57.49150474 72.8984375 61.1328125 C69.11181377 68.5907912 65.58337095 76.07074117 62.421875 83.81640625 C60.85360876 87.32777159 58.90798456 90.66102703 57 94 C2.88 94 -51.24 94 -107 94 C-105.5451784 90.36294601 -104.44355311 87.92442139 -102.3125 84.8125 C-101.51960571 83.65113525 -101.51960571 83.65113525 -100.71069336 82.46630859 C-100.14616455 81.65242676 -99.58163574 80.83854492 -99 80 C-98.41549072 79.15131348 -97.83098145 78.30262695 -97.22875977 77.42822266 C-93.17227922 71.58037459 -88.94003348 65.92724856 -84.546875 60.328125 C-80.42296962 55.01097513 -76.6172215 49.45804529 -72.76171875 43.9453125 C-72.29636719 43.28571533 -71.83101562 42.62611816 -71.3515625 41.9465332 C-70.46561249 40.67057954 -69.60004287 39.3801765 -68.7578125 38.07495117 C-65.92716349 33.79541489 -63.24205754 31.52170198 -58.625 29.0625 C-58.0155957 28.73314453 -57.40619141 28.40378906 -56.77832031 28.06445312 C-55.49756508 27.37466467 -54.21298317 26.69193744 -52.92480469 26.01611328 C-51.06317084 25.03334818 -49.22171264 24.02065243 -47.3828125 22.99609375 C-39.7913961 18.80299354 -32.04678653 15.1220535 -24.07714844 11.70117188 C-20.19152481 10.0257035 -16.61132928 8.22099696 -13 6 C-10.78585038 4.886296 -8.55575779 3.80384516 -6.3125 2.75 C-5.17425781 2.20859375 -4.03601563 1.6671875 -2.86328125 1.109375 C-1.91839844 0.74328125 -0.97351563 0.3771875 0 0 Z " fill="#FC6416" transform="translate(110,83)"/>
<path d="M0 0 C0.99 0.495 0.99 0.495 2 1 C-2.68860612 17.56384621 -2.68860612 17.56384621 -5.0625 23.125 C-7.78086965 29.51594253 -9.31542595 36.2796248 -11 43 C-11.66 43 -12.32 43 -13 43 C-13.0928125 44.8253125 -13.0928125 44.8253125 -13.1875 46.6875 C-13.35321924 49.94664504 -13.99141049 50.98981752 -16.1484375 53.546875 C-19.12912811 56.11108555 -21.93418787 57.78499657 -25.4375 59.5625 C-26.76777351 60.24705557 -28.0971434 60.93336893 -29.42578125 61.62109375 C-30.15104004 61.99476074 -30.87629883 62.36842773 -31.62353516 62.75341797 C-35.19725553 64.62802411 -38.72260063 66.58818957 -42.25415039 68.54077148 C-55.5983101 75.90451435 -68.175382 82.10404244 -83 86 C-84.485 86.495 -84.485 86.495 -86 87 C-86 87.66 -86 88.32 -86 89 C-84.02 89 -82.04 89 -80 89 C-79.67 89.99 -79.34 90.98 -79 92 C-78.44570312 91.84402344 -77.89140625 91.68804687 -77.3203125 91.52734375 C-76.59585938 91.33269531 -75.87140625 91.13804687 -75.125 90.9375 C-74.40570313 90.74027344 -73.68640625 90.54304688 -72.9453125 90.33984375 C-71 90 -71 90 -69 91 C-67.64694954 91.10101057 -66.28915593 91.14206172 -64.93237305 91.15148926 C-63.65466034 91.16400475 -63.65466034 91.16400475 -62.35113525 91.17677307 C-61.41412781 91.18095749 -60.47712036 91.18514191 -59.51171875 91.18945312 C-58.52596863 91.19774643 -57.54021851 91.20603973 -56.52459717 91.21458435 C-54.37586088 91.23202045 -52.22710521 91.24717743 -50.07833862 91.26036072 C-46.66228342 91.28140535 -43.24632205 91.30843792 -39.83032227 91.33703613 C-32.55358493 91.39682276 -25.27680181 91.44876337 -18 91.5 C-9.61890715 91.55951451 -1.23785797 91.6223256 7.14315796 91.69187927 C10.48059686 91.71810637 13.81804078 91.73914472 17.15551758 91.7598877 C29.13299843 91.84881191 41.04883549 92.18913306 53 93 C53 93.33 53 93.66 53 94 C0.2 94 -52.6 94 -107 94 C-105.5451784 90.36294601 -104.44355311 87.92442139 -102.3125 84.8125 C-101.51960571 83.65113525 -101.51960571 83.65113525 -100.71069336 82.46630859 C-100.14616455 81.65242676 -99.58163574 80.83854492 -99 80 C-98.41549072 79.15131348 -97.83098145 78.30262695 -97.22875977 77.42822266 C-93.17227922 71.58037459 -88.94003348 65.92724856 -84.546875 60.328125 C-80.42296962 55.01097513 -76.6172215 49.45804529 -72.76171875 43.9453125 C-72.29636719 43.28571533 -71.83101562 42.62611816 -71.3515625 41.9465332 C-70.46561249 40.67057954 -69.60004287 39.3801765 -68.7578125 38.07495117 C-65.92716349 33.79541489 -63.24205754 31.52170198 -58.625 29.0625 C-58.0155957 28.73314453 -57.40619141 28.40378906 -56.77832031 28.06445312 C-55.49756508 27.37466467 -54.21298317 26.69193744 -52.92480469 26.01611328 C-51.06317084 25.03334818 -49.22171264 24.02065243 -47.3828125 22.99609375 C-39.7913961 18.80299354 -32.04678653 15.1220535 -24.07714844 11.70117188 C-20.19152481 10.0257035 -16.61132928 8.22099696 -13 6 C-10.78585038 4.886296 -8.55575779 3.80384516 -6.3125 2.75 C-5.17425781 2.20859375 -4.03601563 1.6671875 -2.86328125 1.109375 C-1.91839844 0.74328125 -0.97351563 0.3771875 0 0 Z " fill="#F83E05" transform="translate(110,83)"/>
<path d="M0 0 C-4.75 3 -4.75 3 -7 3 C-7 3.66 -7 4.32 -7 5 C-8.4765625 6.12109375 -8.4765625 6.12109375 -10.625 7.4375 C-17.43925662 11.83033839 -23.68616426 16.92775139 -30 22 C-30.94101563 22.75539063 -31.88203125 23.51078125 -32.8515625 24.2890625 C-38.52378545 28.8904233 -44.062403 33.63269101 -49.58666992 38.40893555 C-53.73932839 41.97653687 -57.9874761 45.3941757 -62.3125 48.75 C-68.63114927 53.65558855 -74.93943245 58.60856028 -80.3125 64.5625 C-87.08652357 70.70638184 -95.86182765 74.48415913 -104.015625 78.4765625 C-107.00385394 80.00196733 -109.87005511 81.6548167 -112.75 83.375 C-118.13080362 86.57095695 -123.64236218 89.38671999 -129.25732422 92.13989258 C-133.7489007 94.34753348 -138.11231824 96.6952811 -142.3984375 99.28515625 C-143.19121094 99.63900391 -143.19121094 99.63900391 -144 100 C-144.66 99.67 -145.32 99.34 -146 99 C-143.43732561 95.1361007 -140.83737471 91.30494831 -138.1875 87.5 C-133.24084684 80.38072866 -128.3654854 73.21307938 -123.49291992 66.04296875 C-122.27030206 64.24601988 -121.04450518 62.45122958 -119.81542969 60.65869141 C-118.59563505 58.87230577 -117.38808667 57.07750182 -116.19238281 55.27490234 C-111.03229399 47.61977881 -105.68890364 43.10214048 -97.625 38.6875 C-96.92947021 38.30142578 -96.23394043 37.91535156 -95.51733398 37.51757812 C-90.11752131 34.54759001 -84.63636157 31.75925412 -79.10791016 29.0378418 C-71.31492432 25.1971092 -63.6610186 21.09599014 -56 17 C-57.65 17 -59.3 17 -61 17 C-58.44124015 14.44124015 -56.86417075 14.45085819 -53.3125 13.8125 C-45.48764084 12.23783794 -37.96429023 9.93028868 -30.34887695 7.55688477 C-24.36780234 5.69946044 -18.41579402 4.04552699 -12.31640625 2.625 C-10.06053945 2.01633442 -8.0572118 1.22498038 -5.9375 0.25 C-3 -1 -3 -1 0 0 Z " fill="#F74106" transform="translate(201,5)"/>
<path d="M0 0 C-1.22982682 5.25947213 -2.77711477 8.49514061 -6.25 12.75 C-7.15848524 13.8849331 -8.06459445 15.02177085 -8.96875 16.16015625 C-9.45730469 16.77262207 -9.94585937 17.38508789 -10.44921875 18.01611328 C-13.30714902 21.67221237 -16.01653629 25.4380216 -18.75 29.1875 C-24.00679395 36.36556967 -29.39483982 43.42521818 -34.88085938 50.42919922 C-38.72917138 55.34780947 -42.5144038 60.30778985 -46.25 65.3125 C-54.29842912 76.0923024 -62.54733045 86.71314848 -70.81225586 97.32739258 C-75.16245079 102.9160814 -79.48786651 108.52314266 -83.80078125 114.140625 C-86.85096667 118.10640782 -89.92205213 122.0557423 -93 126 C-94.10370043 122.6888987 -93.92673641 120.75251051 -93.5625 117.3125 C-93.46066406 116.31863281 -93.35882813 115.32476562 -93.25390625 114.30078125 C-93.12822266 113.16189453 -93.12822266 113.16189453 -93 112 C-92.34 112 -91.68 112 -91 112 C-90.98582031 111.32839844 -90.97164063 110.65679687 -90.95703125 109.96484375 C-90.5829268 102.12887209 -89.23808545 94.71601318 -87.5625 87.0625 C-87.34505127 86.06790771 -87.12760254 85.07331543 -86.90356445 84.04858398 C-85.82866106 79.26948513 -84.67772649 74.61179701 -83 70 C-83.66 69.67 -84.32 69.34 -85 69 C-80.12114809 62.86355582 -74.73827229 58.02436053 -68.55151367 53.29296875 C-64.31288067 50.04821055 -60.21814527 46.68685396 -56.1875 43.1875 C-45.45238479 33.90565631 -34.56015541 24.82632178 -23.25 16.25 C-22.59467285 15.74855469 -21.9393457 15.24710938 -21.26416016 14.73046875 C-17.96019214 12.25744395 -14.96840474 10.30260614 -11 9 C-11 8.34 -11 7.68 -11 7 C-9.02 6.01 -7.04 5.02 -5 4 C-7.64 4.33 -10.28 4.66 -13 5 C-12.67 4.34 -12.34 3.68 -12 3 C-12.99 2.67 -13.98 2.34 -15 2 C-12.6132527 0.80662635 -10.71678465 0.68305056 -8.0625 0.4375 C-7.18722656 0.35371094 -6.31195313 0.26992188 -5.41015625 0.18359375 C-3 0 -3 0 0 0 Z " fill="#FB9125" transform="translate(205,1)"/>
<path d="M0 0 C-1.41827396 3.40718159 -3.01146237 5.04120777 -6 7.171875 C-6.79970215 7.7496167 -7.5994043 8.3273584 -8.42333984 8.92260742 C-9.69878662 9.82716675 -9.69878662 9.82716675 -11 10.75 C-12.74318762 12.01033663 -14.48538596 13.27204274 -16.2265625 14.53515625 C-17.47614746 15.43838623 -17.47614746 15.43838623 -18.75097656 16.35986328 C-22.95695692 19.42714249 -26.99829549 22.67296302 -31 26 C-31.97582031 26.80308594 -32.95164062 27.60617188 -33.95703125 28.43359375 C-42.03333433 35.135997 -49.69010876 42.24193021 -57.32958984 49.43408203 C-62.85405888 54.61296897 -68.53455426 59.60690283 -74.27587891 64.54248047 C-80.31874192 69.74258405 -86.28002036 75.01524087 -92.125 80.4375 C-92.74012451 81.00428467 -93.35524902 81.57106934 -93.98901367 82.1550293 C-96.79484597 84.77806617 -99.36788689 87.38695097 -101.7421875 90.41015625 C-102.48726563 91.26480469 -103.23234375 92.11945313 -104 93 C-104.99 93 -105.98 93 -107 93 C-105.75013402 89.63768447 -104.33783112 86.77003831 -102.3125 83.8125 C-101.51960571 82.65113525 -101.51960571 82.65113525 -100.71069336 81.46630859 C-100.14616455 80.65242676 -99.58163574 79.83854492 -99 79 C-98.41549072 78.15131348 -97.83098145 77.30262695 -97.22875977 76.42822266 C-93.17227922 70.58037459 -88.94003348 64.92724856 -84.546875 59.328125 C-80.42296962 54.01097513 -76.6172215 48.45804529 -72.76171875 42.9453125 C-72.29636719 42.28571533 -71.83101562 41.62611816 -71.3515625 40.9465332 C-70.46561249 39.67057954 -69.60004287 38.3801765 -68.7578125 37.07495117 C-65.92716349 32.79541489 -63.24205754 30.52170198 -58.625 28.0625 C-58.0155957 27.73314453 -57.40619141 27.40378906 -56.77832031 27.06445312 C-55.49756508 26.37466467 -54.21298317 25.69193744 -52.92480469 25.01611328 C-51.06317084 24.03334818 -49.22171264 23.02065243 -47.3828125 21.99609375 C-39.7913961 17.80299354 -32.04678653 14.1220535 -24.07714844 10.70117188 C-20.19494999 9.02718044 -16.59271667 7.24850295 -13 5 C-11.302345 4.08409191 -9.59396776 3.18775423 -7.875 2.3125 C-7.02679688 1.87550781 -6.17859375 1.43851562 -5.3046875 0.98828125 C-3 0 -3 0 0 0 Z " fill="#F8882E" transform="translate(110,84)"/>
<path d="M0 0 C0.99 0.33 1.98 0.66 3 1 C2.22398438 1.58265625 1.44796875 2.1653125 0.6484375 2.765625 C-12.57441442 12.76975639 -24.90545614 23.66889911 -37 35 C-38.485 34.505 -38.485 34.505 -40 34 C-39.34 34 -38.68 34 -38 34 C-38 33.34 -38 32.68 -38 32 C-37.34 31.34 -36.68 30.68 -36 30 C-38.31787296 29.78006628 -38.31787296 29.78006628 -40.5625 32.25 C-43.09032055 34.6694751 -43.09032055 34.6694751 -43.5 37.0625 C-44.28061595 40.08738679 -46.57391973 41.1804398 -49 43 C-49.33 43.66 -49.66 44.32 -50 45 C-51.84765625 46.0703125 -51.84765625 46.0703125 -54.0625 47.125 C-54.79597656 47.47820312 -55.52945313 47.83140625 -56.28515625 48.1953125 C-57.13400391 48.59363281 -57.13400391 48.59363281 -58 49 C-57.01 46.03 -57.01 46.03 -56 43 C-56.66 42.67 -57.32 42.34 -58 42 C-57.38125 41.5875 -56.7625 41.175 -56.125 40.75 C-53.85142427 38.87764352 -53.2127984 37.63254257 -52 35 C-49.7238428 30.18946608 -47.44213539 26.10835515 -44 22 C-43.62101562 21.20980469 -43.24203125 20.41960937 -42.8515625 19.60546875 C-40.30528443 16.02241501 -37.3662169 14.79896264 -33.4375 13 C-31.99083092 12.31001009 -30.54421625 11.61990607 -29.09765625 10.9296875 C-28.39527832 10.6006543 -27.69290039 10.27162109 -26.96923828 9.93261719 C-24.408339 8.71979357 -21.89290739 7.4243171 -19.375 6.125 C-13.71045481 3.31167237 -9.34523321 2 -3 2 C-2.01 1.34 -1.02 0.68 0 0 Z " fill="#FA8D25" transform="translate(90,98)"/>
<path d="M0 0 C0.68043297 -0.00085442 1.36086593 -0.00170885 2.06191808 -0.00258917 C4.3466693 -0.00423901 6.63134744 0.00126932 8.91609192 0.00672913 C10.55198159 0.00701113 12.18787139 0.006853 13.82376099 0.00628662 C18.26973358 0.00599916 22.71567931 0.01188758 27.16164565 0.01886058 C31.80613682 0.02510269 36.45062857 0.0256986 41.09512329 0.02688599 C49.89235561 0.02999677 58.68957554 0.03820676 67.4868024 0.04823548 C77.50119002 0.05940446 87.51557823 0.06490905 97.52997053 0.06993091 C118.13239877 0.08038957 138.73481586 0.09798413 159.3372345 0.12025452 C158.9622345 2.55775452 158.9622345 2.55775452 158.3372345 5.12025452 C157.6772345 5.45025452 157.0172345 5.78025452 156.3372345 6.12025452 C156.9972345 4.47025452 157.6572345 2.82025452 158.3372345 1.12025452 C157.3472345 1.45025452 156.3572345 1.78025452 155.3372345 2.12025452 C153.17321307 2.22186933 151.00616822 2.26235577 148.83978271 2.27174377 C147.84575128 2.27809239 147.84575128 2.27809239 146.8316384 2.28456926 C144.60685762 2.29760535 142.3821127 2.30362224 140.15730286 2.30970764 C138.56406434 2.31764914 136.97082799 2.32603702 135.37759399 2.33483887 C131.94488084 2.35290258 128.51217249 2.36791568 125.07943535 2.38061523 C119.65561729 2.40081735 114.23185313 2.42847138 108.80807495 2.45729065 C96.31698203 2.52251808 83.82584915 2.57794612 71.33470917 2.63327789 C59.88536319 2.68408988 48.43603679 2.73694638 36.98673922 2.7978034 C31.59073149 2.82620024 26.19473024 2.84977876 20.79868495 2.86972809 C17.44763944 2.88308705 14.09662405 2.90050071 10.74560356 2.91903877 C9.18710591 2.92681372 7.62859866 2.93287499 6.07008743 2.93713188 C3.94924084 2.94315281 1.82851229 2.95518825 -0.29229736 2.96876526 C-1.48120103 2.97391899 -2.67010469 2.97907272 -3.89503574 2.98438263 C-6.62190958 2.93198499 -6.62190958 2.93198499 -8.6627655 4.12025452 C-9.38126212 5.69410425 -10.08813617 7.27424766 -10.73698425 8.87806702 C-12.2419612 12.52303228 -13.92640975 16.08622204 -15.576828 19.66712952 C-16.7347143 22.17801332 -16.7347143 22.17801332 -17.6627655 25.12025452 C-18.3227655 25.12025452 -18.9827655 25.12025452 -19.6627655 25.12025452 C-19.77491394 25.68228577 -19.88706238 26.24431702 -20.00260925 26.82337952 C-20.75208043 29.43100704 -21.90256464 31.5037128 -23.2252655 33.87025452 C-25.68299308 38.63033609 -26.15316739 41.82391408 -25.6627655 47.12025452 C-27.6427655 47.61525452 -27.6427655 47.61525452 -29.6627655 48.12025452 C-29.6627655 49.44025452 -29.6627655 50.76025452 -29.6627655 52.12025452 C-27.84918396 51.64519774 -26.03692372 51.16509409 -24.2252655 50.68275452 C-23.21592957 50.41591858 -22.20659363 50.14908264 -21.16667175 49.87416077 C-18.74524549 49.36047375 -18.74524549 49.36047375 -17.6627655 48.12025452 C-15.89985643 47.74727541 -14.12684738 47.42144986 -12.3502655 47.12025452 C-9.08213764 46.56174935 -5.8677211 45.97287928 -2.6627655 45.12025452 C-2.0027655 46.11025452 -1.3427655 47.10025452 -0.6627655 48.12025452 C-4.41158931 49.2284403 -8.1620372 50.33103349 -11.9127655 51.43275452 C-13.47897644 51.89585022 -13.47897644 51.89585022 -15.076828 52.36830139 C-22.23158322 54.46614629 -29.41593604 56.36706798 -36.6627655 58.12025452 C-35.08567485 52.94310353 -32.92778255 48.17736125 -30.6002655 43.30775452 C-30.20468445 42.47534241 -29.80910339 41.6429303 -29.40153503 40.78529358 C-26.40170096 34.52941185 -23.21475957 28.3913906 -19.91203308 22.29090881 C-16.99499731 16.86731643 -14.37649303 11.33942737 -11.9571991 5.67591858 C-11.2681196 4.12153318 -10.47312015 2.61500194 -9.6627655 1.12025452 C-6.23497755 -0.02234147 -3.61628602 -0.00272927 0 0 Z " fill="#D5632B" transform="translate(46.66276550292969,-0.1202545166015625)"/>
<path d="M0 0 C-1.22982682 5.25947213 -2.77711477 8.49514061 -6.25 12.75 C-7.15848524 13.8849331 -8.06459445 15.02177085 -8.96875 16.16015625 C-9.45730469 16.77262207 -9.94585937 17.38508789 -10.44921875 18.01611328 C-13.30714619 21.67220874 -16.0166265 25.43796008 -18.75 29.1875 C-24.08722888 36.47844442 -29.56446708 43.64405771 -35.14233398 50.75219727 C-39.11215902 55.82118359 -42.93691165 60.96158456 -46.64453125 66.2265625 C-47.09183594 66.81179687 -47.53914062 67.39703125 -48 68 C-48.33 68 -48.66 68 -49 68 C-49.3125 65.1875 -49.3125 65.1875 -49 62 C-46.8125 60.5625 -46.8125 60.5625 -44 59 C-40.74213479 55.39920161 -38.44863242 51.93495662 -38 47 C-37.01 47 -36.02 47 -35 47 C-34.731875 46.030625 -34.46375 45.06125 -34.1875 44.0625 C-33.795625 43.051875 -33.40375 42.04125 -33 41 C-31.515 40.505 -31.515 40.505 -30 40 C-30 38.68 -30 37.36 -30 36 C-29.278125 35.814375 -28.55625 35.62875 -27.8125 35.4375 C-23.93507723 33.45570614 -21.97634652 30.84503214 -20 27 C-19.36145729 24.59497782 -19.15318877 22.5020833 -19 20 C-18.34 20 -17.68 20 -17 20 C-17 19.01 -17 18.02 -17 17 C-15.35 16.67 -13.7 16.34 -12 16 C-12 14.68 -12 13.36 -12 12 C-12.66 12 -13.32 12 -14 12 C-14 12.66 -14 13.32 -14 14 C-15.64453125 15.11328125 -15.64453125 15.11328125 -17.8125 16.3125 C-21.45094974 18.47263041 -22.87695036 20.33291426 -25 24 C-25.86496094 24.39960938 -26.72992188 24.79921875 -27.62109375 25.2109375 C-32.68878143 27.8941756 -36.31527927 31.87995145 -40.34570312 35.90625 C-44.38959925 39.8296189 -47.75401065 41.9818061 -53 44 C-54.4818964 46.0351761 -54.4818964 46.0351761 -55 48 C-56.32 47.34 -57.64 46.68 -59 46 C-51.60327161 39.04103717 -43.90867385 32.67939379 -35.88085938 26.46923828 C-31.93031377 23.38325912 -28.04018061 20.21994488 -24.14941406 17.05908203 C-14.15053933 9 -14.15053933 9 -11 9 C-11 8.34 -11 7.68 -11 7 C-9.02 6.01 -7.04 5.02 -5 4 C-7.64 4.33 -10.28 4.66 -13 5 C-12.67 4.34 -12.34 3.68 -12 3 C-12.99 2.67 -13.98 2.34 -15 2 C-12.6132527 0.80662635 -10.71678465 0.68305056 -8.0625 0.4375 C-7.18722656 0.35371094 -6.31195313 0.26992188 -5.41015625 0.18359375 C-3 0 -3 0 0 0 Z " fill="#FA9136" transform="translate(205,1)"/>
<path d="M0 0 C0 0.66 0 1.32 0 2 C-0.66 2 -1.32 2 -2 2 C-2.00156206 4.97279952 -2.00156206 4.97279952 -1.82421875 7.9375 C-1.3508582 15.07848196 -3.98592196 20.63814243 -7 27 C-7.33 27 -7.66 27 -8 27 C-7.45018084 20.95198929 -6.09570426 15.69398894 -4 10 C-5.50184065 10.57857795 -7.00135945 11.16318292 -8.5 11.75 C-9.3353125 12.07484375 -10.170625 12.3996875 -11.03125 12.734375 C-14.7738244 14.32989356 -18.37483462 16.15637403 -22 18 C-23.23906824 18.62082079 -24.47863997 19.24063785 -25.71875 19.859375 C-27.66987599 20.83480995 -29.62087239 21.8105003 -31.5715332 22.78686523 C-35.09025444 24.54763382 -38.61091636 26.30423039 -42.13671875 28.05078125 C-49.6485434 31.77832498 -57.08003185 35.60619069 -64.42578125 39.65234375 C-67 41 -67 41 -70 42 C-71.20882096 44.00016466 -71.20882096 44.00016466 -72 46 C-72.6875 44.1875 -72.6875 44.1875 -73 42 C-70.99867374 39.56028799 -68.80677754 38.19994117 -66 36.8125 C-65.319375 36.46832031 -64.63875 36.12414062 -63.9375 35.76953125 C-62 35 -62 35 -59 35 C-59 34.34 -59 33.68 -59 33 C-59.99 33 -60.98 33 -62 33 C-61.67 32.01 -61.34 31.02 -61 30 C-59.68117575 29.61322943 -58.34215816 29.29580459 -57 29 C-54.63561101 27.91632171 -52.31812237 26.80010356 -50 25.625 C-49.30938477 25.27775879 -48.61876953 24.93051758 -47.90722656 24.57275391 C-41.24235673 21.1871654 -34.70732513 17.5731807 -28.1730957 13.94360352 C-22.65432012 10.88476598 -17.09689596 7.98221938 -11.42578125 5.21484375 C-9.18749744 4.09389969 -7.03163457 2.89438369 -4.875 1.625 C-2 0 -2 0 0 0 Z " fill="#FBE4DA" transform="translate(115,74)"/>
<path d="M0 0 C1.27736526 -0.00426498 2.55473053 -0.00852997 3.87080383 -0.01292419 C5.29444888 -0.01257465 6.71809391 -0.0121131 8.14173889 -0.0115509 C9.6346851 -0.01454165 11.12763054 -0.01794399 12.62057495 -0.02172852 C16.682516 -0.03058101 20.744436 -0.03290715 24.80638576 -0.0335443 C28.19370801 -0.03449241 31.58102534 -0.03816955 34.9683457 -0.0417164 C42.95778659 -0.04986561 50.9472162 -0.0523002 58.93666077 -0.05158997 C67.18684285 -0.05098896 75.4369596 -0.06154432 83.68712515 -0.07733363 C90.76316542 -0.09039487 97.83918429 -0.09577446 104.91523653 -0.09513456 C109.14462456 -0.09487916 113.37395455 -0.0977531 117.60333061 -0.10831261 C121.58006199 -0.11796988 125.55667953 -0.11808916 129.53341484 -0.11079597 C130.99474757 -0.10974719 132.45608731 -0.11213037 133.91740799 -0.11815643 C135.90871025 -0.12583751 137.90005103 -0.12004985 139.89135742 -0.11352539 C141.5646633 -0.11434254 141.5646633 -0.11434254 143.27177334 -0.1151762 C146.00917053 0.13371277 146.00917053 0.13371277 149.00917053 2.13371277 C145.75115593 6.0815621 142.33256643 7.2708027 137.50917053 8.44621277 C136.84530334 8.62732605 136.18143616 8.80843933 135.49745178 8.99504089 C132.04601387 9.88028994 129.38685501 10.46927678 126.00917053 9.13371277 C129.70089648 5.59580873 133.10307649 5.54255394 138.00917053 5.13371277 C138.00917053 4.14371277 138.00917053 3.15371277 138.00917053 2.13371277 C136.95729553 2.29871277 135.90542053 2.46371277 134.82167053 2.63371277 C128.31560882 3.44697048 121.0921774 4.01431722 114.65408325 2.6257782 C111.89384918 2.11225813 109.44399454 2.05761864 106.63978577 2.12785339 C105.59197433 2.15117737 104.5441629 2.17450134 103.46459961 2.1985321 C102.34364395 2.22870422 101.22268829 2.25887634 100.06776428 2.28996277 C98.90793533 2.31594543 97.74810638 2.3419281 96.5531311 2.36869812 C92.85083349 2.45178769 89.14876177 2.54191148 85.44667053 2.63371277 C80.57048739 2.75445575 75.69421506 2.86812958 70.81776428 2.97746277 C69.13329445 3.02272095 69.13329445 3.02272095 67.41479492 3.06889343 C66.37013565 3.09221741 65.32547638 3.11554138 64.24916077 3.13957214 C63.33158493 3.16257385 62.41400909 3.18557556 61.46862793 3.20927429 C59.00917053 3.13371277 59.00917053 3.13371277 56.93167114 2.57084656 C54.59914436 2.04048196 53.30237765 2.51181704 51.00917053 3.13371277 C49.16162264 3.2147948 47.31135105 3.24128243 45.46205139 3.23136902 C43.79528603 3.22641418 43.79528603 3.22641418 42.09484863 3.22135925 C40.8999733 3.21306091 39.70509796 3.20476257 38.47401428 3.19621277 C37.24381058 3.19242615 36.01360687 3.18863953 34.74612427 3.18473816 C30.14454024 3.17043353 25.54302582 3.14714778 20.94148254 3.12333679 C16.431501 3.1004889 11.92153088 3.0851056 7.41151428 3.07121277 C6.21461472 3.06291443 5.01771515 3.05461609 3.7845459 3.04606628 C2.67652115 3.04276306 1.5684964 3.03945984 0.42689514 3.03605652 C-0.54921219 3.0308197 -1.52531952 3.02558289 -2.53100586 3.02018738 C-5.12796908 3.02822898 -5.12796908 3.02822898 -7.99082947 4.13371277 C-8.32082947 4.79371277 -8.65082947 5.45371277 -8.99082947 6.13371277 C-8.61582947 3.69621277 -8.61582947 3.69621277 -7.99082947 1.13371277 C-5.25001092 -0.23669651 -3.06913 0.00461224 0 0 Z " fill="#F87730" transform="translate(45.99082946777344,1.8662872314453125)"/>
<path d="M0 0 C-0.66 0 -1.32 0 -2 0 C-2 0.66 -2 1.32 -2 2 C-0.02 2 1.96 2 4 2 C4.33 2.99 4.66 3.98 5 5 C5.55429687 4.84402344 6.10859375 4.68804687 6.6796875 4.52734375 C7.76636719 4.23537109 7.76636719 4.23537109 8.875 3.9375 C9.95394531 3.64166016 9.95394531 3.64166016 11.0546875 3.33984375 C13 3 13 3 15 4 C16.35305046 4.10101057 17.71084407 4.14206172 19.06762695 4.15148926 C20.34533966 4.16400475 20.34533966 4.16400475 21.64886475 4.17677307 C23.05437592 4.1830497 23.05437592 4.1830497 24.48828125 4.18945312 C25.47403137 4.19774643 26.45978149 4.20603973 27.47540283 4.21458435 C29.62413912 4.23202045 31.77289479 4.24717743 33.92166138 4.26036072 C37.33771658 4.28140535 40.75367795 4.30843792 44.16967773 4.33703613 C51.44641507 4.39682276 58.72319819 4.44876337 66 4.5 C74.38109285 4.55951451 82.76214203 4.6223256 91.14315796 4.69187927 C94.48059686 4.71810637 97.81804078 4.73914472 101.15551758 4.7598877 C113.13299843 4.84881191 125.04883549 5.18913306 137 6 C137 6.33 137 6.66 137 7 C85.19 7 33.38 7 -20 7 C-19.34 5.68 -18.68 4.36 -18 3 C-17.195625 3.0825 -16.39125 3.165 -15.5625 3.25 C-11.41554555 2.95898565 -8.70796728 1.65330964 -5.05078125 -0.22265625 C-3 -1 -3 -1 0 0 Z " fill="#D74A1B" transform="translate(26,170)"/>
<path d="M0 0 C-4.29 8.25 -8.58 16.5 -13 25 C-13.33 25 -13.66 25 -14 25 C-14.25 19.375 -14.25 19.375 -12 16 C-11.34 16 -10.68 16 -10 16 C-9.67 12.7 -9.34 9.4 -9 6 C-15.49441062 5.59409934 -20.39453432 7.09122405 -26.125 10.125 C-28.68965961 11.32184115 -31.20500045 11.57000007 -34 12 C-35.91966144 12.48804952 -37.83924002 12.97643706 -39.7578125 13.46875 C-42.18248078 14.04323586 -44.60930277 14.50072898 -47.0625 14.9375 C-51.7532461 15.77536885 -56.44306685 16.61416867 -61.125 17.5 C-62.40632813 17.7371875 -63.68765625 17.974375 -65.0078125 18.21875 C-65.99523437 18.4765625 -66.98265625 18.734375 -68 19 C-68.33 19.66 -68.66 20.32 -69 21 C-72.3 21 -75.6 21 -79 21 C-76.24967627 19.16645085 -74.44881959 18.41233361 -71.3359375 17.51953125 C-70.39161865 17.24616943 -69.4472998 16.97280762 -68.47436523 16.69116211 C-67.45157471 16.40120361 -66.42878418 16.11124512 -65.375 15.8125 C-63.77603882 15.35339233 -63.77603882 15.35339233 -62.14477539 14.88500977 C-58.76490647 13.91717756 -55.382708 12.9578574 -52 12 C-50.94184082 11.69868164 -49.88368164 11.39736328 -48.79345703 11.08691406 C-41.53859251 9.02249414 -34.27305891 6.99929918 -27 5 C-25.92041016 4.70109863 -24.84082031 4.40219727 -23.72851562 4.09423828 C-20.55107093 3.21840417 -17.37008178 2.35695579 -14.1875 1.5 C-13.22062256 1.23243896 -12.25374512 0.96487793 -11.25756836 0.68920898 C-10.36175049 0.45145752 -9.46593262 0.21370605 -8.54296875 -0.03125 C-7.75946045 -0.24330078 -6.97595215 -0.45535156 -6.16870117 -0.67382812 C-4 -1 -4 -1 0 0 Z " fill="#DA652C" transform="translate(193,125)"/>
<path d="M0 0 C1 3 1 3 0.109375 4.98046875 C-0.33921875 5.70878906 -0.7878125 6.43710938 -1.25 7.1875 C-3.30838543 10.68618818 -4.88550446 14.02397936 -6.12890625 17.8828125 C-7.45030814 21.0944709 -9.26318239 23.99364261 -11 27 C-12.30941559 26.93148331 -13.61883118 26.86296661 -14.96792603 26.79237366 C-28.9891834 26.08916868 -42.98634314 25.7961467 -57.0234375 25.68359375 C-59.23402221 25.66294787 -61.44460366 25.6419499 -63.65518188 25.62062073 C-69.39236762 25.56618605 -75.12958412 25.51644011 -80.86682129 25.46777344 C-86.753689 25.41697337 -92.64051363 25.36159702 -98.52734375 25.30664062 C-110.01819211 25.20002499 -121.50907835 25.09837772 -133 25 C-133 24.67 -133 24.34 -133 24 C-124.45391723 22.97696422 -115.96640693 22.87826714 -107.37518883 22.92483521 C-104.95509845 22.9378034 -102.53506405 22.94416614 -100.11494446 22.94897461 C-94.10569347 22.96222156 -88.0964963 22.98639666 -82.08728027 23.01037598 C-76.99605912 23.03027761 -71.9048585 23.04584626 -66.81360817 23.05593872 C-64.45534612 23.06231446 -62.09717174 23.07481954 -59.73893738 23.08764648 C-51.69531697 23.11458511 -43.76503353 22.88453177 -35.74421692 22.21655273 C-32.40729778 21.95322845 -30.20396751 21.93201083 -27 23 C-21.95063533 23.29098034 -16.91385603 23.31036161 -12 22 C-12 20.68 -12 19.36 -12 18 C-11.34 18 -10.68 18 -10 18 C-9.9175 17.360625 -9.835 16.72125 -9.75 16.0625 C-8.7153798 11.83780083 -7.29678762 7.71131714 -5 4 C-2.92578125 2.85546875 -2.92578125 2.85546875 -1 2 C-0.67 1.34 -0.34 0.68 0 0 Z " fill="#F85B21" transform="translate(178,150)"/>
<path d="M0 0 C0.99 0.33 1.98 0.66 3 1 C2.22398438 1.58265625 1.44796875 2.1653125 0.6484375 2.765625 C-12.57441442 12.76975639 -24.90545614 23.66889911 -37 35 C-37.99 34.67 -38.98 34.34 -40 34 C-39.34 34 -38.68 34 -38 34 C-38 33.34 -38 32.68 -38 32 C-36.29059971 30.39771617 -34.46698472 28.98705258 -32.62890625 27.53515625 C-30.73441742 25.99243114 -30.73441742 25.99243114 -30 23 C-29.01 23 -28.02 23 -27 23 C-27 22.01 -27 21.02 -27 20 C-26.21625 19.7525 -25.4325 19.505 -24.625 19.25 C-21.67682892 17.84610901 -21.0975223 16.99324263 -20 14 C-24.13686014 12.83088735 -26.51752306 13.20623085 -30.5 14.75 C-31.4178125 15.09546875 -32.335625 15.4409375 -33.28125 15.796875 C-36.06903381 16.95332262 -36.06903381 16.95332262 -38.71875 18.703125 C-39.4715625 19.13109375 -40.224375 19.5590625 -41 20 C-41.66 19.67 -42.32 19.34 -43 19 C-36.56753574 14.79415798 -29.89843686 11.37484175 -23 8 C-21.54112841 7.25104753 -20.08271628 6.50119862 -18.625 5.75 C-13.26414149 3.09172305 -8.99352791 2 -3 2 C-2.01 1.34 -1.02 0.68 0 0 Z " fill="#F88D33" transform="translate(90,98)"/>
<path d="M0 0 C0.66 0.33 1.32 0.66 2 1 C0.625 2.5 0.625 2.5 -1 4 C-1.66 4 -2.32 4 -3 4 C-3 4.66 -3 5.32 -3 6 C-3.6290625 6.23332031 -4.258125 6.46664062 -4.90625 6.70703125 C-12.85347587 10.09417722 -16.43529616 14.8427666 -21 22 C-22.31071337 23.95952957 -23.6232308 25.91785356 -24.9375 27.875 C-25.91009766 29.35613281 -25.91009766 29.35613281 -26.90234375 30.8671875 C-28.40521847 33.11170431 -29.92833277 35.31586745 -31.50390625 37.5078125 C-31.91970947 38.09062988 -32.3355127 38.67344727 -32.76391602 39.27392578 C-33.940209 40.91650753 -35.12610546 42.55219942 -36.3125 44.1875 C-38.34299717 47.02501021 -38.34299717 47.02501021 -38 51 C-38.66 51 -39.32 51 -40 51 C-40 51.66 -40 52.32 -40 53 C-37.03 52.505 -37.03 52.505 -34 52 C-34 51.34 -34 50.68 -34 50 C-31.03 49.505 -31.03 49.505 -28 49 C-28 48.34 -28 47.68 -28 47 C-26.02 47 -24.04 47 -22 47 C-22 46.01 -22 45.02 -22 44 C-20.68 44 -19.36 44 -18 44 C-17.505 43.01 -17.505 43.01 -17 42 C-15.35 42 -13.7 42 -12 42 C-15.07985701 45.29997224 -18.71595861 47.14062867 -22.6875 49.1875 C-23.80632568 49.77035767 -23.80632568 49.77035767 -24.94775391 50.36499023 C-27.29501564 51.58354241 -29.64716614 52.79224758 -32 54 C-32.7636084 54.39541992 -33.5272168 54.79083984 -34.31396484 55.19824219 C-36.49714854 56.32732877 -38.68494029 57.44681877 -40.875 58.5625 C-41.54619873 58.90885498 -42.21739746 59.25520996 -42.90893555 59.61206055 C-45.80552252 61.07023936 -47.71029251 62 -51 62 C-48.43732561 58.1361007 -45.83737471 54.30494831 -43.1875 50.5 C-38.24084684 43.38072866 -33.3654854 36.21307938 -28.49291992 29.04296875 C-26.66661585 26.35874897 -24.83519225 23.6781502 -23 21 C-22.36650635 20.07461426 -21.7330127 19.14922852 -21.08032227 18.19580078 C-20.46471436 17.30489746 -19.84910645 16.41399414 -19.21484375 15.49609375 C-18.6643335 14.69743896 -18.11382324 13.89878418 -17.54663086 13.07592773 C-13.24052211 7.29615777 -6.45984385 3.09050084 0 0 Z " fill="#B6492D" transform="translate(106,42)"/>
<path d="M0 0 C-1 3 -1 3 -3.375 4.375 C-6.50678977 6.313727 -7.50812736 7.64328656 -9 11 C-9.51293271 13.67920194 -9.76896898 16.27383398 -10 19 C-10.66 19 -11.32 19 -12 19 C-12.20302734 20.485 -12.20302734 20.485 -12.41015625 22 C-12.98525104 26.01858854 -13.69221809 30.00987533 -14.4375 34 C-14.55931641 34.67289063 -14.68113281 35.34578125 -14.80664062 36.0390625 C-15.62782418 40.44707368 -16.76112418 44.68706717 -18 49 C-18.25055521 50.47260276 -18.46862543 51.95194159 -18.625 53.4375 C-18.74875 54.613125 -18.8725 55.78875 -19 57 C-17.515 56.505 -17.515 56.505 -16 56 C-17.77945087 60.04420651 -20.39529673 63.46078487 -23 67 C-24.10370043 63.6888987 -23.92673641 61.75251051 -23.5625 58.3125 C-23.46066406 57.31863281 -23.35882813 56.32476562 -23.25390625 55.30078125 C-23.17011719 54.54152344 -23.08632812 53.78226563 -23 53 C-22.34 53 -21.68 53 -21 53 C-20.98582031 52.32839844 -20.97164063 51.65679687 -20.95703125 50.96484375 C-20.5829268 43.12887209 -19.23808545 35.71601318 -17.5625 28.0625 C-17.34505127 27.06790771 -17.12760254 26.07331543 -16.90356445 25.04858398 C-15.82866106 20.26948513 -14.67772649 15.61179701 -13 11 C-13.66 10.67 -14.32 10.34 -15 10 C-13.7121669 8.51749445 -12.41960936 7.03909182 -11.125 5.5625 C-10.40570313 4.73878906 -9.68640625 3.91507813 -8.9453125 3.06640625 C-5.97270884 -0.091239 -4.20978281 -0.11078376 0 0 Z " fill="#F59533" transform="translate(135,60)"/>
<path d="M0 0 C-1.53115493 4.39951849 -4.96415862 6.50298092 -8.625 9.0625 C-9.21667969 9.49626953 -9.80835937 9.93003906 -10.41796875 10.37695312 C-16.24796629 14.51335527 -21.76425072 17 -29 17 C-35.33081878 19.03873825 -41.10439821 21.94946074 -47 25 C-48.24172764 25.60771136 -49.48394668 26.21441932 -50.7265625 26.8203125 C-58.24237382 30.55540347 -64.13745747 33.94229391 -69 41 C-69.62519531 41.88816406 -70.25039062 42.77632812 -70.89453125 43.69140625 C-72.12084758 45.4472115 -73.33092491 47.2145442 -74.51953125 48.99609375 C-76 51 -76 51 -78 52 C-76.28917389 48.25813968 -74.01968259 44.93549135 -71.6875 41.5625 C-71.30916016 41.00240234 -70.93082031 40.44230469 -70.54101562 39.86523438 C-65.17335269 32.081669 -59.48654322 28.36095273 -51.1875 24.1875 C-50.16664307 23.66486572 -49.14578613 23.14223145 -48.09399414 22.60375977 C-45.06800963 21.05833861 -42.03538282 19.52686483 -39 18 C-38.16146484 17.57654297 -37.32292969 17.15308594 -36.45898438 16.71679688 C-31.98244348 14.45778424 -27.49445618 12.22312195 -23 10 C-19.80780641 8.41225973 -16.62684558 6.80786867 -13.45703125 5.17578125 C-12.24221136 4.55464083 -11.02736741 3.93354748 -9.8125 3.3125 C-8.88920898 2.83200195 -8.88920898 2.83200195 -7.94726562 2.34179688 C-5.09129009 0.89060237 -3.25075008 0 0 0 Z " fill="#EE8F41" transform="translate(110,84)"/>
<path d="M0 0 C-6.39493332 4.26328888 -14.23563314 5.62787685 -21.6484375 7.3046875 C-33.05618234 9.9551156 -44.33705883 13.00914868 -55.625 16.125 C-57.55590003 16.65527411 -59.48688945 17.18522284 -61.41796875 17.71484375 C-62.35606384 17.97239441 -63.29415894 18.22994507 -64.26068115 18.49530029 C-66.08592561 18.99622907 -67.91131992 19.49661223 -69.73687744 19.99639893 C-73.39014282 20.9983056 -77.03740049 22.01088321 -80.67480469 23.06933594 C-82.14675293 23.49520996 -82.14675293 23.49520996 -83.6484375 23.9296875 C-84.44169434 24.16671387 -85.23495117 24.40374023 -86.05224609 24.64794922 C-88 25 -88 25 -91 24 C-88.03 23.01 -85.06 22.02 -82 21 C-82.33 20.34 -82.66 19.68 -83 19 C-77.36965045 16.96001828 -71.88456347 15.48592464 -65.96875 14.52734375 C-65.3190625 14.35332031 -64.669375 14.17929687 -64 14 C-63.67 13.34 -63.34 12.68 -63 12 C-63 12.66 -63 13.32 -63 14 C-62.030625 13.74605469 -61.06125 13.49210937 -60.0625 13.23046875 C-52.37302229 11.24658737 -44.71133279 9.52343957 -36.88964844 8.15185547 C-31.07355743 7.09529914 -25.53315703 5.52134061 -19.890625 3.76953125 C-17 3 -17 3 -13 3 C-13 2.34 -13 1.68 -13 1 C-8.62426048 0.40667939 -4.42471556 -0.13827236 0 0 Z " fill="#E05D24" transform="translate(139,22)"/>
<path d="M0 0 C0 6.70180296 -4.11998128 11.86159682 -8 17 C-7.34 17.33 -6.68 17.66 -6 18 C-6.33 18.66 -6.66 19.32 -7 20 C-6.34 20.33 -5.68 20.66 -5 21 C-5.42821045 21.39268066 -5.8564209 21.78536133 -6.29760742 22.18994141 C-8.26451532 23.99774359 -10.22601771 25.81131312 -12.1875 27.625 C-12.86103516 28.24246094 -13.53457031 28.85992187 -14.22851562 29.49609375 C-17.3087202 32.3509175 -20.20672072 35.15197839 -22.80078125 38.4609375 C-23.52652344 39.29882812 -24.25226562 40.13671875 -25 41 C-25.99 41 -26.98 41 -28 41 C-26.75013402 37.63768447 -25.33783112 34.77003831 -23.3125 31.8125 C-22.78317871 31.03720947 -22.25385742 30.26191895 -21.70849609 29.46313477 C-21.14469238 28.65030029 -20.58088867 27.83746582 -20 27 C-19.4220166 26.16073975 -18.8440332 25.32147949 -18.24853516 24.45678711 C-13.38948796 17.45207357 -8.27721949 10.69330735 -3 4 C-1.9954034 2.67012653 -0.99340729 1.33825249 0 0 Z " fill="#D8793B" transform="translate(31,136)"/>
<path d="M0 0 C0 0.66 0 1.32 0 2 C-1.65002828 3.35386936 -3.3174387 4.68678142 -5 6 C-5.33 6.66 -5.66 7.32 -6 8 C-8.5625 8.625 -8.5625 8.625 -11 9 C-11 9.66 -11 10.32 -11 11 C-14.05336887 14.40232531 -17.0608459 16.73498639 -21 19 C-24.05613806 21.29210355 -26.74901546 23.74957788 -29.43457031 26.45703125 C-31.29258431 28.28838628 -33.19348768 30.0685171 -35.1015625 31.84765625 C-35.83890625 32.53537109 -36.57625 33.22308594 -37.3359375 33.93164062 C-38.86811388 35.35792427 -40.40198353 36.78239099 -41.9375 38.20507812 C-43.03964844 39.2347168 -43.03964844 39.2347168 -44.1640625 40.28515625 C-44.82873535 40.90269775 -45.4934082 41.52023926 -46.17822266 42.15649414 C-48.05211172 43.9671287 -48.05211172 43.9671287 -49.57958984 46.12280273 C-51.39125055 48.51707211 -53.34676184 49.63936505 -56 51 C-56.66 51 -57.32 51 -58 51 C-58 51.66 -58 52.32 -58 53 C-59.35546875 54.33203125 -59.35546875 54.33203125 -61.1875 55.8125 C-65.41733276 59.32743145 -69.22053925 62.98599779 -72.625 67.3125 C-73.800625 68.6428125 -73.800625 68.6428125 -75 70 C-75.99 70 -76.98 70 -78 70 C-74.03976644 60.7664028 -63.51965608 53.80540991 -55.984375 47.4609375 C-47.70718552 40.46357626 -39.7792443 33.15936408 -31.9140625 25.703125 C-23.89407433 18.1004059 -15.61506233 10.92116374 -7 4 C-6.10925781 3.25363281 -5.21851562 2.50726563 -4.30078125 1.73828125 C-2 0 -2 0 0 0 Z " fill="#DA4105" transform="translate(87,104)"/>
<path d="M0 0 C1.134375 0.020625 2.26875 0.04125 3.4375 0.0625 C2.25389373 3.61331882 1.69666811 3.75590518 -1.5 5.40234375 C-2.31339844 5.82580078 -3.12679687 6.24925781 -3.96484375 6.68554688 C-4.82207031 7.11931641 -5.67929688 7.55308594 -6.5625 8 C-7.38878906 8.42990234 -8.21507813 8.85980469 -9.06640625 9.30273438 C-24.11493503 17.0625 -24.11493503 17.0625 -27.5625 17.0625 C-27.5625 16.4025 -27.5625 15.7425 -27.5625 15.0625 C-25.2525 14.4025 -22.9425 13.7425 -20.5625 13.0625 C-20.8925 12.0725 -21.2225 11.0825 -21.5625 10.0625 C-26.5125 10.0625 -31.4625 10.0625 -36.5625 10.0625 C-33.04800618 7.71950412 -29.67878445 7.01585896 -25.625 6.125 C-24.09492113 5.77661633 -22.56497391 5.42765395 -21.03515625 5.078125 C-20.27992676 4.90732422 -19.52469727 4.73652344 -18.74658203 4.56054688 C-15.67800667 3.86080467 -12.61906404 3.12534785 -9.5625 2.375 C-8.61375 2.14425781 -7.665 1.91351562 -6.6875 1.67578125 C-0.93799078 0.01645598 -0.93799078 0.01645598 0 0 Z " fill="#FADED2" transform="translate(135.5625,23.9375)"/>
<path d="M0 0 C-0.33 1.32 -0.66 2.64 -1 4 C-3.31 4.33 -5.62 4.66 -8 5 C-8 5.66 -8 6.32 -8 7 C-9.5 8.625 -9.5 8.625 -11 10 C-3.46568368 9.55231767 -3.46568368 9.55231767 3.875 7.9375 C6.79109511 7.06267147 8.98455674 6.81724586 12 7 C7.31612866 10.1225809 2.41006154 11.19210706 -3.0625 12.25 C-10.4713034 13.77137995 -17.66778946 15.86983453 -24.89086914 18.10644531 C-25.75446045 18.36522461 -26.61805176 18.62400391 -27.5078125 18.890625 C-28.66240967 19.24688965 -28.66240967 19.24688965 -29.84033203 19.61035156 C-32.22781542 20.04110258 -33.71690786 19.75605948 -36 19 C-17.37968161 8.63316158 -17.37968161 8.63316158 -9.26171875 4.25390625 C-7.59226304 3.32835309 -5.95273434 2.34833396 -4.33203125 1.33984375 C-2 0 -2 0 0 0 Z " fill="#FADDD3" transform="translate(85,142)"/>
<path d="M0 0 C0.99 0 1.98 0 3 0 C1.62035739 2.94079548 0.02496076 5.48058368 -1.90625 8.08984375 C-2.47996338 8.86730957 -3.05367676 9.64477539 -3.64477539 10.44580078 C-4.25699951 11.26806152 -4.86922363 12.09032227 -5.5 12.9375 C-6.13220459 13.79069824 -6.76440918 14.64389648 -7.41577148 15.52294922 C-12.08969907 21.81534507 -16.83645816 28.045495 -21.64160156 34.23828125 C-23.23718623 36.30760889 -24.81828454 38.38761573 -26.3984375 40.46875 C-26.98488037 41.24009277 -27.57132324 42.01143555 -28.17553711 42.80615234 C-29.32645954 44.32083452 -30.47578266 45.83673362 -31.62329102 47.35400391 C-32.41110962 48.38920166 -32.41110962 48.38920166 -33.21484375 49.4453125 C-33.68011475 50.05906738 -34.14538574 50.67282227 -34.62475586 51.30517578 C-35.99011493 52.98781783 -37.4407238 54.49728381 -39 56 C-39.3125 53.1875 -39.3125 53.1875 -39 50 C-36.8125 48.5625 -36.8125 48.5625 -34 47 C-30.74213479 43.39920161 -28.44863242 39.93495662 -28 35 C-27.01 35 -26.02 35 -25 35 C-24.731875 34.030625 -24.46375 33.06125 -24.1875 32.0625 C-23.5996875 30.5465625 -23.5996875 30.5465625 -23 29 C-22.01 28.67 -21.02 28.34 -20 28 C-20 26.68 -20 25.36 -20 24 C-19.278125 23.814375 -18.55625 23.62875 -17.8125 23.4375 C-13.93507723 21.45570614 -11.97634652 18.84503214 -10 15 C-9.36145729 12.59497782 -9.15318877 10.5020833 -9 8 C-8.34 8 -7.68 8 -7 8 C-7 7.01 -7 6.02 -7 5 C-5.5459375 4.5978125 -5.5459375 4.5978125 -4.0625 4.1875 C-3.051875 3.795625 -2.04125 3.40375 -1 3 C-0.67 2.01 -0.34 1.02 0 0 Z " fill="#D9843A" transform="translate(195,13)"/>
<path d="M0 0 C0.66 0.33 1.32 0.66 2 1 C-2.68860612 17.56384621 -2.68860612 17.56384621 -5.0625 23.125 C-7.78086965 29.51594253 -9.31542595 36.2796248 -11 43 C-11.66 43 -12.32 43 -13 43 C-13.0928125 44.8253125 -13.0928125 44.8253125 -13.1875 46.6875 C-13.61185603 49.85900296 -13.99867449 50.99816139 -15.9375 53.6875 C-19.97072126 56.73299361 -24.25012475 59.23455964 -29 61 C-29.66 60.67 -30.32 60.34 -31 60 C-30.67 59.34 -30.34 58.68 -30 58 C-29.01 58 -28.02 58 -27 58 C-27 57.34 -27 56.68 -27 56 C-24.03 55.01 -21.06 54.02 -18 53 C-17.67 51.35 -17.34 49.7 -17 48 C-16.34 48 -15.68 48 -15 48 C-15 45.69 -15 43.38 -15 41 C-14.01 40.505 -14.01 40.505 -13 40 C-12.24055684 37.28855058 -11.58839426 34.62390445 -11 31.875 C-7.81475541 17.44186047 -7.81475541 17.44186047 -5 12 C-4.63215869 10.6757713 -4.28797019 9.34386088 -4 8 C-4.66 7.67 -5.32 7.34 -6 7 C-5.195625 6.401875 -4.39125 5.80375 -3.5625 5.1875 C-0.77672016 3.19052724 -0.77672016 3.19052724 0 0 Z " fill="#BF4226" transform="translate(110,83)"/>
<path d="M0 0 C-4.75 3 -4.75 3 -7 3 C-7 3.66 -7 4.32 -7 5 C-8.4765625 6.12109375 -8.4765625 6.12109375 -10.625 7.4375 C-23.52811441 15.75554545 -35.25261846 26.15759925 -47 36 C-47.66 35.67 -48.32 35.34 -49 35 C-48.52949219 34.60167969 -48.05898437 34.20335937 -47.57421875 33.79296875 C-46.95160156 33.26316406 -46.32898438 32.73335937 -45.6875 32.1875 C-44.76517578 31.40439453 -44.76517578 31.40439453 -43.82421875 30.60546875 C-42.71229383 29.62687958 -41.62467478 28.61845392 -40.5859375 27.5625 C-38.4852632 25.49287015 -36.23025147 23.6662858 -33.9375 21.8125 C-33.05964844 21.09707031 -32.18179688 20.38164062 -31.27734375 19.64453125 C-29 18 -29 18 -27 18 C-27 17.34 -27 16.68 -27 16 C-26.01 15.34 -25.02 14.68 -24 14 C-23.67 13.01 -23.34 12.02 -23 11 C-21.00428677 10.32060826 -19.00405227 9.65438441 -17 9 C-16.34 8.01 -15.68 7.02 -15 6 C-15.721875 6.309375 -16.44375 6.61875 -17.1875 6.9375 C-21.43104594 8.54061735 -24.60909233 9.46363589 -29 8 C-23.74064114 5.48985145 -18.54533886 4.09890326 -12.87890625 2.765625 C-10.40328366 2.10725047 -8.24975193 1.33003275 -5.9375 0.25 C-3 -1 -3 -1 0 0 Z " fill="#DA4305" transform="translate(201,5)"/>
<path d="M0 0 C-1.90553782 9.68648391 -3.95728539 19.34172799 -6 29 C-6.33 29 -6.66 29 -7 29 C-7.09087891 27.93458984 -7.09087891 27.93458984 -7.18359375 26.84765625 C-7.26738281 25.92855469 -7.35117188 25.00945312 -7.4375 24.0625 C-7.51871094 23.14597656 -7.59992188 22.22945312 -7.68359375 21.28515625 C-7.76044976 19.03840268 -7.76044976 19.03840268 -9 18 C-10.53445094 14.93109813 -9.54984289 12.29905734 -9 9 C-9.66 8.67 -10.32 8.34 -11 8 C-10.34 7.01 -9.68 6.02 -9 5 C-8.34 5 -7.68 5 -7 5 C-6.814375 4.0409375 -6.814375 4.0409375 -6.625 3.0625 C-6.41875 2.381875 -6.2125 1.70125 -6 1 C-4 0 -4 0 0 0 Z " fill="#FDF3EB" transform="translate(122,71)"/>
<path d="M0 0 C4.50234373 -0.04944705 9.0045293 -0.08574161 13.50708008 -0.10986328 C15.03868361 -0.11991935 16.57026795 -0.133566 18.10180664 -0.15087891 C20.30359636 -0.17514498 22.50513219 -0.18648688 24.70703125 -0.1953125 C25.39150833 -0.20563507 26.07598541 -0.21595764 26.78120422 -0.22659302 C30.43061661 -0.22745382 31.87148502 -0.08567666 35 2 C31.74198539 5.94784933 28.32339589 7.13708993 23.5 8.3125 C22.83613281 8.49361328 22.17226562 8.67472656 21.48828125 8.86132812 C18.03684334 9.74657717 15.37768447 10.33556401 12 9 C15.69172595 5.46209597 19.09390595 5.40884117 24 5 C24 4.01 24 3.02 24 2 C22.4221875 2.2475 22.4221875 2.2475 20.8125 2.5 C16.93780619 2.97218491 13.08966455 3.16270325 9.1875 3.25 C7.53814453 3.28867188 7.53814453 3.28867188 5.85546875 3.328125 C2.60793454 2.95494733 2.0904388 2.34030282 0 0 Z " fill="#FB802E" transform="translate(160,2)"/>
<path d="M0 0 C0.66 0.33 1.32 0.66 2 1 C-4.46783029 7.08504034 -11.10169451 12.707311 -18.15673828 18.09619141 C-21.14923433 20.4179983 -23.74798434 22.63861726 -26 25.6875 C-28.7489942 29.26032527 -32.33145179 31.2298054 -36.1875 33.4375 C-36.80689453 33.79223389 -37.42628906 34.14696777 -38.06445312 34.51245117 C-40.91317351 36.07699512 -42.70097717 37 -46 37 C-45.67 36.01 -45.34 35.02 -45 34 C-43 33.33333333 -41 32.66666667 -39 32 C-37.62437146 30.71034824 -36.29233607 29.37310707 -35 28 C-33.61333136 27.10857016 -32.22626327 26.2177464 -30.8359375 25.33203125 C-27.45534812 22.87930576 -24.48017299 19.94178812 -21.41015625 17.1171875 C-19.46788732 15.41101285 -17.62312355 13.9837732 -15.4375 12.625 C-12.71586975 11.17084359 -12.71586975 11.17084359 -12 8 C-11.34 8 -10.68 8 -10 8 C-10 7.34 -10 6.68 -10 6 C-4.25 3 -4.25 3 -2 3 C-2 2.34 -2 1.68 -2 1 C-1.34 0.67 -0.68 0.34 0 0 Z " fill="#DC460A" transform="translate(149,42)"/>
<path d="M0 0 C1.32 0.33 2.64 0.66 4 1 C3.01 1.66 2.02 2.32 1 3 C0.25999797 4.58091342 -0.46699532 6.16993498 -1.109375 7.79296875 C-2.19644224 10.48679767 -3.40905649 13.11196163 -4.625 15.75 C-5.8908491 18.49650896 -7.04306066 21.12918198 -8 24 C-8.66 24 -9.32 24 -10 24 C-10.12979248 24.58628174 -10.25958496 25.17256348 -10.39331055 25.77661133 C-11.35622357 29.30548411 -13.14521667 32.44923851 -14.8125 35.6875 C-17.71241253 41.39411359 -20.47740568 47.11394659 -23 53 C-21.68 53.66 -20.36 54.32 -19 55 C-21.64 55.66 -24.28 56.32 -27 57 C-25.42290935 51.82284901 -23.26501705 47.05710673 -20.9375 42.1875 C-20.54191895 41.35508789 -20.14633789 40.52267578 -19.73876953 39.66503906 C-16.73953043 33.4103981 -13.54552921 27.27854766 -10.25585938 21.17285156 C-6.54569323 14.24830254 -3.23888839 7.15471486 0 0 Z " fill="#B85B38" transform="translate(37,1)"/>
<path d="M0 0 C-0.57105469 0.74121094 -1.14210937 1.48242188 -1.73046875 2.24609375 C-2.54954519 3.309845 -3.36854899 4.37365218 -4.1875 5.4375 C-4.6316626 6.01443604 -5.0758252 6.59137207 -5.53344727 7.18579102 C-8.63095875 11.21228961 -11.71656437 15.24768532 -14.796875 19.28735352 C-19.57014928 25.543042 -24.35528345 31.7896919 -29.1875 38 C-29.64503662 38.59353271 -30.10257324 39.18706543 -30.57397461 39.79858398 C-33.7686986 43.8843493 -33.7686986 43.8843493 -36 45 C-35.34 42.36 -34.68 39.72 -34 37 C-32.68 37 -31.36 37 -30 37 C-29.67 35.35 -29.34 33.7 -29 32 C-28.01 32 -27.02 32 -26 32 C-25.938125 31.278125 -25.87625 30.55625 -25.8125 29.8125 C-24.75345729 26.14658294 -22.70400728 24.63805589 -20 22 C-19.4740625 20.6696875 -19.4740625 20.6696875 -18.9375 19.3125 C-18 17 -18 17 -16.1875 16.125 C-11.39167836 13.65857744 -9.06554133 8.54615695 -7.375 3.625 C-6.92125 2.42875 -6.4675 1.2325 -6 0 C-3 -1 -3 -1 0 0 Z " fill="#C7783E" transform="translate(156,70)"/>
<path d="M0 0 C-1.32 0.33 -2.64 0.66 -4 1 C-4 1.66 -4 2.32 -4 3 C-4.92296875 3.15855469 -5.8459375 3.31710938 -6.796875 3.48046875 C-21.27901559 6.04179476 -35.78437796 9.15677117 -49.58984375 14.30078125 C-52.17080812 15.04955373 -54.32684395 15.12911487 -57 15 C-57 15.66 -57 16.32 -57 17 C-58.65 17 -60.3 17 -62 17 C-59.55713047 13.33569571 -58.61426394 13.39616391 -54.4375 12.5 C-50.82948156 11.67786593 -47.34771512 10.83974115 -43.875 9.5625 C-38.58985345 7.71704663 -33.13137788 6.65989635 -27.66796875 5.48510742 C-22.73976955 4.41579087 -17.92649866 3.17702549 -13.11328125 1.6640625 C-3.79352997 -1.26450999 -3.79352997 -1.26450999 0 0 Z " fill="#C45B3D" transform="translate(113,147)"/>
<path d="M0 0 C1.65 0 3.3 0 5 0 C2.94381815 2.21532172 1.01657526 3.69219697 -1.66015625 5.0859375 C-2.72061157 5.6430542 -2.72061157 5.6430542 -3.80249023 6.21142578 C-4.92119507 6.78739502 -4.92119507 6.78739502 -6.0625 7.375 C-6.82312744 7.77058105 -7.58375488 8.16616211 -8.36743164 8.57373047 C-9.88194048 9.35972305 -11.39778423 10.1431495 -12.91503906 10.92382812 C-14.70729159 11.84891584 -16.49122063 12.7900978 -18.2734375 13.734375 C-19.15257813 14.19328125 -20.03171875 14.6521875 -20.9375 15.125 C-21.68902344 15.51945312 -22.44054687 15.91390625 -23.21484375 16.3203125 C-23.80394531 16.54460937 -24.39304687 16.76890625 -25 17 C-25.66 16.67 -26.32 16.34 -27 16 C-26.43454163 12.04179141 -25.19097652 9.3340947 -23 6 C-22.34 6.33 -21.68 6.66 -21 7 C-21 7.66 -21 8.32 -21 9 C-21.66 9 -22.32 9 -23 9 C-23 9.66 -23 10.32 -23 11 C-21.02 10.67 -19.04 10.34 -17 10 C-17 9.34 -17 8.68 -17 8 C-15.02 7.67 -13.04 7.34 -11 7 C-11 6.34 -11 5.68 -11 5 C-9.02 5 -7.04 5 -5 5 C-5 4.01 -5 3.02 -5 2 C-3.68 2 -2.36 2 -1 2 C-0.67 1.34 -0.34 0.68 0 0 Z " fill="#DC401E" transform="translate(89,84)"/>
<path d="M0 0 C0.375 2.25 0.375 2.25 0 5 C-3.93321764 8.5298107 -7.78582931 9.63686188 -12.8515625 10.5078125 C-15.90736653 11.20786942 -18.21132985 12.16454433 -20.3828125 14.46484375 C-22.62244036 16.5908673 -25.01557379 17.42514718 -27.875 18.5625 C-28.90367188 18.97628906 -29.93234375 19.39007813 -30.9921875 19.81640625 C-32.48105469 20.40228516 -32.48105469 20.40228516 -34 21 C-35.66682238 21.66627724 -37.33354546 22.33280326 -39 23 C-39.33 22.34 -39.66 21.68 -40 21 C-28 15 -16 9 -4 3 C-4 2.67 -4 2.34 -4 2 C-5.32 1.67 -6.64 1.34 -8 1 C-5.29120665 -0.35439668 -2.99066732 -0.06501451 0 0 Z " fill="#BB3F24" transform="translate(148,20)"/>
<path d="M0 0 C1 3 1 3 0.109375 4.98046875 C-0.56351563 6.07294922 -0.56351563 6.07294922 -1.25 7.1875 C-3.30838543 10.68618818 -4.88550446 14.02397936 -6.12890625 17.8828125 C-7.43993819 21.06926681 -9.29049385 24.00836424 -11 27 C-18.26 26.67 -25.52 26.34 -33 26 C-33 25.67 -33 25.34 -33 25 C-22.605 24.505 -22.605 24.505 -12 24 C-10.42060681 20.84121362 -9.67999475 18.99844802 -9.0625 15.6875 C-8.15830662 11.43989387 -7.0414056 7.8472644 -5 4 C-2.875 2.6875 -2.875 2.6875 -1 2 C-0.67 1.34 -0.34 0.68 0 0 Z " fill="#D36128" transform="translate(178,150)"/>
<path d="M0 0 C0.66 0.33 1.32 0.66 2 1 C1.67 1.66 1.34 2.32 1 3 C2.98 2.67 4.96 2.34 7 2 C4.2970227 4.11410755 1.59540557 5.85101057 -1.44140625 7.4453125 C-2.27220703 7.88230469 -3.10300781 8.31929687 -3.95898438 8.76953125 C-4.81814453 9.21683594 -5.67730469 9.66414063 -6.5625 10.125 C-7.42552734 10.58003906 -8.28855469 11.03507812 -9.17773438 11.50390625 C-15.59700255 14.86566752 -15.59700255 14.86566752 -19 16 C-20.20882096 18.00016466 -20.20882096 18.00016466 -21 20 C-21.6875 18.1875 -21.6875 18.1875 -22 16 C-19.99867374 13.56028799 -17.80677754 12.19994117 -15 10.8125 C-14.319375 10.46832031 -13.63875 10.12414062 -12.9375 9.76953125 C-11 9 -11 9 -8 9 C-8 8.34 -8 7.68 -8 7 C-8.99 7 -9.98 7 -11 7 C-10.67 6.01 -10.34 5.02 -10 4 C-8.68225804 3.60955794 -7.34332728 3.29044914 -6 3 C-4.96875 2.46375 -3.9375 1.9275 -2.875 1.375 C-1.451875 0.694375 -1.451875 0.694375 0 0 Z " fill="#F4D8CF" transform="translate(64,100)"/>
<path d="M0 0 C0.33 0 0.66 0 1 0 C0.44265326 7.60085587 -0.91524375 14.87908312 -2.5625 22.3125 C-3.02686141 24.41172057 -3.48667116 26.5119544 -3.94140625 28.61328125 C-4.24606812 29.98673706 -4.24606812 29.98673706 -4.55688477 31.38793945 C-4.9965658 33.97975621 -5.08022411 36.3768789 -5 39 C-3.68 38.01 -2.36 37.02 -1 36 C-2.77945087 40.04420651 -5.39529673 43.46078487 -8 47 C-9.10370043 43.6888987 -8.92673641 41.75251051 -8.5625 38.3125 C-8.46066406 37.31863281 -8.35882813 36.32476562 -8.25390625 35.30078125 C-8.17011719 34.54152344 -8.08632812 33.78226563 -8 33 C-7.34 33 -6.68 33 -6 33 C-5.97421875 32.28199219 -5.9484375 31.56398438 -5.921875 30.82421875 C-5.52767954 23.63015168 -4.49019348 16.79255878 -3 9.75 C-2.82178711 8.90397217 -2.64357422 8.05794434 -2.45996094 7.1862793 C-1.13730875 1.13730875 -1.13730875 1.13730875 0 0 Z " fill="#BE7A45" transform="translate(120,80)"/>
<path d="M0 0 C2.0625 0.4375 2.0625 0.4375 4 1 C1.96130461 2.19285368 -0.08024595 3.38009524 -2.125 4.5625 C-3.06484741 5.10777344 -3.06484741 5.10777344 -4.02368164 5.6640625 C-7.82633407 7.84270005 -11.66194541 9.81833407 -15.63793945 11.65917969 C-22.36647058 14.8029948 -26.77489051 17.91150889 -31 24 C-31.62648438 24.88945313 -32.25296875 25.77890625 -32.8984375 26.6953125 C-34.12321093 28.44998791 -35.33192926 30.21604957 -36.51953125 31.99609375 C-38 34 -38 34 -40 35 C-38.28917389 31.25813968 -36.01968259 27.93549135 -33.6875 24.5625 C-33.30916016 24.00240234 -32.93082031 23.44230469 -32.54101562 22.86523438 C-26.95493558 14.76494571 -20.90105966 11.08083723 -12.25 6.75 C-10.15034199 5.68366824 -8.05134575 4.61603207 -5.953125 3.546875 C-5.02661133 3.08120117 -4.10009766 2.61552734 -3.14550781 2.13574219 C-1.07777688 1.17581882 -1.07777688 1.17581882 0 0 Z " fill="#BE7743" transform="translate(72,101)"/>
<path d="M0 0 C-2.14151815 1.11041682 -4.23856563 2.08946211 -6.5 2.9375 C-9.05536536 3.87863355 -9.05536536 3.87863355 -11 5.6875 C-13 7 -13 7 -15.5 6.625 C-16.325 6.41875 -17.15 6.2125 -18 6 C-19.34282235 6.29277469 -20.67580598 6.63203384 -22 7 C-23.56155793 7.29666904 -25.12413509 7.58800548 -26.6875 7.875 C-32.3336003 8.99254422 -37.95695369 10.41579237 -43.0859375 13.0859375 C-45.48851885 14.23329268 -47.3710841 14.14605088 -50 14 C-50 13.34 -50 12.68 -50 12 C-37.67660278 8.62909403 -25.35309643 5.26071581 -13 2 C-12.16984375 1.773125 -11.3396875 1.54625 -10.484375 1.3125 C-6.91007782 0.35935409 -3.70641749 -0.23165109 0 0 Z " fill="#F05B26" transform="translate(106,150)"/>
<path d="M0 0 C-4.29 8.25 -8.58 16.5 -13 25 C-13.33 25 -13.66 25 -14 25 C-14.25 19.375 -14.25 19.375 -12 16 C-11.34 16 -10.68 16 -10 16 C-9.7834375 14.8553125 -9.7834375 14.8553125 -9.5625 13.6875 C-8.72701236 9.69572573 -7.81754275 7.81754275 -5 5 C-4.30885071 3.67919158 -3.63886667 2.34687475 -3 1 C-4.75376953 1.54140625 -4.75376953 1.54140625 -6.54296875 2.09375 C-8.09103636 2.5628614 -9.6392196 3.03159137 -11.1875 3.5 C-11.95642578 3.73847656 -12.72535156 3.97695312 -13.51757812 4.22265625 C-17.44356128 5.40213617 -20.85048821 6.3326262 -25 6 C-21.85642965 2.85642965 -17.85241563 2.41000214 -13.625 1.3125 C-12.76132813 1.07466797 -11.89765625 0.83683594 -11.0078125 0.59179688 C-10.1725 0.37201172 -9.3371875 0.15222656 -8.4765625 -0.07421875 C-7.71424316 -0.27619873 -6.95192383 -0.47817871 -6.16650391 -0.6862793 C-4 -1 -4 -1 0 0 Z " fill="#B5592D" transform="translate(193,125)"/>
<path d="M0 0 C-0.34765625 1.9375 -0.34765625 1.9375 -1 4 C-2.66072849 4.68132451 -4.327767 5.34742127 -6 6 C-6.433125 6.99 -6.433125 6.99 -6.875 8 C-8 10 -8 10 -11.625 11.25 C-12.73875 11.4975 -13.8525 11.745 -15 12 C-15 11.34 -15 10.68 -15 10 C-12.69 9.34 -10.38 8.68 -8 8 C-8.33 7.01 -8.66 6.02 -9 5 C-13.95 5 -18.9 5 -24 5 C-16.98564618 0.32376412 -8.23988631 -0.41199432 0 0 Z " fill="#F9E1D7" transform="translate(123,29)"/>
<path d="M0 0 C-3.62753968 2.04597859 -7.47652679 3.08263591 -11.46875 4.1640625 C-12.5447345 4.45946426 -12.5447345 4.45946426 -13.64245605 4.76083374 C-15.15477901 5.17469694 -16.66769279 5.58640647 -18.18115234 5.99609375 C-20.49380669 6.62332028 -22.80358066 7.26043125 -25.11328125 7.8984375 C-26.58577396 8.30007921 -28.05842512 8.70114056 -29.53125 9.1015625 C-30.56421204 9.38744736 -30.56421204 9.38744736 -31.61804199 9.67910767 C-34.9122697 10.56302358 -37.55373968 11 -41 11 C-41 10.34 -41 9.68 -41 9 C-35.67067568 7.29915181 -30.56890517 6.47986031 -25 6 C-25 5.34 -25 4.68 -25 4 C-23.205625 3.8453125 -23.205625 3.8453125 -21.375 3.6875 C-18.38898348 3.33313853 -16.88289855 2.93494364 -14.1875 1.4375 C-9.51325013 -0.67049504 -5.05110818 -0.2426689 0 0 Z " fill="#FBDECE" transform="translate(193,123)"/>
<path d="M0 0 C-6.58706396 4.39137597 -14.74549192 5.75965563 -22.375 7.5 C-28.96023339 9.02308383 -35.48484186 10.60282422 -41.94140625 12.6171875 C-44.27631348 13.05138277 -45.76443691 12.74011839 -48 12 C-46.35 11.67 -44.7 11.34 -43 11 C-43 10.34 -43 9.68 -43 9 C-42.29617187 8.90203125 -41.59234375 8.8040625 -40.8671875 8.703125 C-33.71332056 7.61977178 -26.94430088 5.93776851 -20.03125 3.8046875 C-17 3 -17 3 -13 3 C-13 2.34 -13 1.68 -13 1 C-8.62426048 0.40667939 -4.42471556 -0.13827236 0 0 Z " fill="#BC5124" transform="translate(139,22)"/>
<path d="M0 0 C0.99 0.33 1.98 0.66 3 1 C2.14664063 1.95648438 1.29328125 2.91296875 0.4140625 3.8984375 C-3.30079215 8.23279816 -6.45507084 12.88491901 -9.625 17.625 C-16.35948276 27.64913793 -16.35948276 27.64913793 -20 32 C-20 30.35 -20 28.7 -20 27 C-19.34 27 -18.68 27 -18 27 C-17.67 25.68 -17.34 24.36 -17 23 C-16.34 23 -15.68 23 -15 23 C-14.8453125 22.1646875 -14.8453125 22.1646875 -14.6875 21.3125 C-13.53744866 17.44414548 -11.22354164 14.33531246 -9 11 C-8.34 11 -7.68 11 -7 11 C-6.67 9.35 -6.34 7.7 -6 6 C-5.34 6 -4.68 6 -4 6 C-3.566875 5.071875 -3.566875 5.071875 -3.125 4.125 C-2 2 -2 2 0 0 Z " fill="#FCE1D7" transform="translate(91,49)"/>
<path d="M0 0 C0.66 0 1.32 0 2 0 C-0.53194746 21.09567286 -0.53194746 21.09567286 -3.1875 30.8125 C-4.36940827 35.14468256 -5.21915383 38.88188342 -5.0625 43.375 C-5.041875 44.57125 -5.02125 45.7675 -5 47 C-5.99 47.66 -6.98 48.32 -8 49 C-7.78286013 39.82090569 -5.85112831 31.17537356 -3.7277832 22.27514648 C-2.42665725 16.66668126 -1.85311958 11.74749476 -2 6 C-1 2.5 -1 2.5 0 0 Z " fill="#E3883D" transform="translate(122,71)"/>
<path d="M0 0 C0.99 0.33 1.98 0.66 3 1 C2.67314209 1.45737549 2.34628418 1.91475098 2.00952148 2.38598633 C-4.22283674 11.12137009 -10.38688584 19.84904276 -16 29 C-17.04528847 25.76591956 -17.06464549 25.15699619 -15.6875 21.8125 C-14 19 -14 19 -12 18 C-11.27840576 16.35636866 -10.60648579 14.68949614 -10 13 C-9.34 13 -8.68 13 -8 13 C-8 12.34 -8 11.68 -8 11 C-7.34 11 -6.68 11 -6 11 C-5.7525 10.29875 -5.505 9.5975 -5.25 8.875 C-3.83911974 5.62997541 -2.02104602 2.89683263 0 0 Z " fill="#FBE7D6" transform="translate(19,148)"/>
<path d="M0 0 C0.66 0.33 1.32 0.66 2 1 C-0.77397227 10.96269189 -3.72588689 20.56057573 -8 30 C-8.33 30 -8.66 30 -9 30 C-9.27388281 23.28987124 -8.07266086 17.94047767 -5 12 C-4.63215869 10.6757713 -4.28797019 9.34386088 -4 8 C-4.66 7.67 -5.32 7.34 -6 7 C-5.195625 6.401875 -4.39125 5.80375 -3.5625 5.1875 C-0.77672016 3.19052724 -0.77672016 3.19052724 0 0 Z " fill="#B93B21" transform="translate(110,83)"/>
<path d="M0 0 C0.33 0 0.66 0 1 0 C3.15166811 5.51364954 3.93903047 10.24159799 2 15.9375 C1.505 16.9584375 1.505 16.9584375 1 18 C-0.32 18 -1.64 18 -3 18 C-3.36517527 11.42684522 -2.13619737 6.20514474 0 0 Z " fill="#FA8620" transform="translate(119,99)"/>
<path d="M0 0 C0.66 0.33 1.32 0.66 2 1 C0.625 2.5 0.625 2.5 -1 4 C-1.66 4 -2.32 4 -3 4 C-3 4.66 -3 5.32 -3 6 C-3.6290625 6.23332031 -4.258125 6.46664062 -4.90625 6.70703125 C-12.82740942 10.08306757 -16.42321517 14.88619475 -21 22 C-21.99162938 23.40179238 -22.99023256 24.79871621 -24 26.1875 C-24.66 27.115625 -25.32 28.04375 -26 29 C-26.66 28.67 -27.32 28.34 -28 28 C-13.12727285 5.8763968 -13.12727285 5.8763968 0 0 Z " fill="#BA4F38" transform="translate(106,42)"/>
<path d="M0 0 C-1.19194469 5.52628901 -2.5991297 8.17819158 -7 12 C-8 11 -8 11 -8.25 8.5625 C-8.1675 7.716875 -8.085 6.87125 -8 6 C-7.01 5.34 -6.02 4.68 -5 4 C-7.64 4.33 -10.28 4.66 -13 5 C-12.67 4.34 -12.34 3.68 -12 3 C-12.99 2.67 -13.98 2.34 -15 2 C-12.6132527 0.80662635 -10.71678465 0.68305056 -8.0625 0.4375 C-7.18722656 0.35371094 -6.31195313 0.26992188 -5.41015625 0.18359375 C-3 0 -3 0 0 0 Z " fill="#F2843C" transform="translate(205,1)"/>
<path d="M0 0 C0.33 0.99 0.66 1.98 1 3 C2.32 2.67 3.64 2.34 5 2 C3.57644576 3.66081328 2.152049 5.32076475 0.72265625 6.9765625 C-0.41275408 8.31021908 -1.53057441 9.65908283 -2.62890625 11.0234375 C-3.14324219 11.65507812 -3.65757813 12.28671875 -4.1875 12.9375 C-4.65542969 13.52402344 -5.12335937 14.11054688 -5.60546875 14.71484375 C-7 16 -7 16 -10 16 C-8.55797524 11.84848662 -6.4989562 8.70021555 -3.875 5.1875 C-3.15054687 4.21167969 -2.42609375 3.23585937 -1.6796875 2.23046875 C-0.84824219 1.12638672 -0.84824219 1.12638672 0 0 Z " fill="#F47138" transform="translate(13,161)"/>
<path d="M0 0 C0 0.66 0 1.32 0 2 C-0.76143311 2.34780518 -1.52286621 2.69561035 -2.30737305 3.05395508 C-5.15057253 4.35435329 -7.99254883 5.65737912 -10.83374023 6.9621582 C-12.6610236 7.80035496 -14.48968224 8.63555149 -16.31835938 9.47070312 C-18.05375977 10.26831055 -18.05375977 10.26831055 -19.82421875 11.08203125 C-21.41882935 11.81256714 -21.41882935 11.81256714 -23.0456543 12.55786133 C-26.01634654 13.95127148 -26.01634654 13.95127148 -28.76098633 15.68237305 C-31 17 -31 17 -33 17 C-33 16.34 -33 15.68 -33 15 C-32.00742188 14.50371094 -31.01484375 14.00742188 -29.9921875 13.49609375 C-29.34145264 13.17060547 -28.69071777 12.84511719 -28.02026367 12.50976562 C-26.58071193 11.7902355 -25.14076507 11.07149539 -23.70043945 10.35351562 C-20.09934505 8.55712673 -16.50446087 6.75084577 -12.92578125 4.91015625 C-12.29494629 4.58797119 -11.66411133 4.26578613 -11.01416016 3.93383789 C-9.27178301 3.04308774 -7.53229873 2.14668565 -5.79296875 1.25 C-3 0 -3 0 0 0 Z " fill="#C68151" transform="translate(110,84)"/>
<path d="M0 0 C-1.65587173 1.90425248 -2.55057385 2.90466718 -5.0625 3.4375 C-5.701875 3.623125 -6.34125 3.80875 -7 4 C-7.268125 4.61875 -7.53625 5.2375 -7.8125 5.875 C-9.6999618 9.25256322 -12.44248414 9.79406242 -16 11 C-18.9375 11.1875 -18.9375 11.1875 -21 11 C-18.87330165 8.66063182 -16.93775144 7.19346152 -14 6 C-13.01 6 -12.02 6 -11 6 C-11 5.34 -11 4.68 -11 4 C-10.360625 3.896875 -9.72125 3.79375 -9.0625 3.6875 C-8.0415625 3.3471875 -8.0415625 3.3471875 -7 3 C-6.67 2.01 -6.34 1.02 -6 0 C-3.42525708 -0.99667468 -2.51072708 -1.25536354 0 0 Z " fill="#ED4315" transform="translate(114,42)"/>
<path d="M0 0 C0.33 0.66 0.66 1.32 1 2 C0.01 3.485 0.01 3.485 -1 5 C-1.2475 5.9075 -1.495 6.815 -1.75 7.75 C-3.34020709 11.88453842 -5.64668507 15.08791072 -9 18 C-11.1953125 18.69921875 -11.1953125 18.69921875 -13 19 C-13 19.66 -13 20.32 -13 21 C-13.66 20.67 -14.32 20.34 -15 20 C-14.00419922 18.71416016 -14.00419922 18.71416016 -12.98828125 17.40234375 C-8.5578618 11.66959874 -4.14662576 5.94349693 0 0 Z " fill="#FAE8D3" transform="translate(148,79)"/>
<path d="M0 0 C1.98953787 5.9686136 -2.01437072 12.20100994 -4.6875 17.5625 C-5.45232941 19.04478001 -6.22099321 20.52512154 -7 22 C-7.99 22 -8.98 22 -10 22 C-10.33 23.32 -10.66 24.64 -11 26 C-11.33 25.34 -11.66 24.68 -12 24 C-10.92481882 21.55667274 -9.80191434 19.23245477 -8.5625 16.875 C-8.22412109 16.21628906 -7.88574219 15.55757812 -7.53710938 14.87890625 C-6.69850074 13.24893453 -5.85015189 11.62398091 -5 10 C-4.34 10 -3.68 10 -3 10 C-2.87625 9.0925 -2.7525 8.185 -2.625 7.25 C-2.07890323 4.41029677 -1.42736197 2.47409409 0 0 Z " fill="#F26829" transform="translate(32,15)"/>
<path d="M0 0 C-3.76309774 2.55751273 -6.75381991 3.49217174 -11.25 4.0625 C-14.35606297 4.41858849 -14.35606297 4.41858849 -17 5 C-17.33 5.66 -17.66 6.32 -18 7 C-21.3 7 -24.6 7 -28 7 C-23.81268429 4.2084562 -19.37219401 3.18716036 -14.5625 1.8125 C-13.60794922 1.52697266 -12.65339844 1.24144531 -11.66992188 0.94726562 C-10.74888672 0.68236328 -9.82785156 0.41746094 -8.87890625 0.14453125 C-7.61929077 -0.22128052 -7.61929077 -0.22128052 -6.33422852 -0.59448242 C-3.85728536 -1.02479333 -2.36054075 -0.79591328 0 0 Z " fill="#BC5224" transform="translate(142,139)"/>
<path d="M0 0 C-0.8125 2.9375 -0.8125 2.9375 -2 6 C-2.99 6.33 -3.98 6.66 -5 7 C-5.73323796 9.01508358 -5.73323796 9.01508358 -6 11 C-7.24546405 8.50907189 -6.7767578 7.58919267 -6 5 C-10.47427924 4.91051442 -14.60563789 5.14256349 -19 6 C-15.81234216 3.25784615 -13.01059274 2.26642135 -8.9375 1.3125 C-7.89464844 1.06113281 -6.85179687 0.80976562 -5.77734375 0.55078125 C-3 0 -3 0 0 0 Z " fill="#F0712F" transform="translate(190,126)"/>
<path d="M0 0 C2.125 0.375 2.125 0.375 4 1 C3.01 1 2.02 1 1 1 C0.76539063 1.97066406 0.53078125 2.94132813 0.2890625 3.94140625 C-1.04514102 8.61111857 -3.29910019 12.69636707 -5.625 16.9375 C-6.04523437 17.71673828 -6.46546875 18.49597656 -6.8984375 19.29882812 C-7.92619814 21.20252112 -8.96225213 23.10173281 -10 25 C-10.33 25 -10.66 25 -11 25 C-11 23.35 -11 21.7 -11 20 C-10.34 20 -9.68 20 -9 20 C-8.731875 18.783125 -8.46375 17.56625 -8.1875 16.3125 C-7.3042542 12.78578094 -6.20858278 9.94477704 -4 7 C-3.34 7 -2.68 7 -2 7 C-2.04125 6.21625 -2.0825 5.4325 -2.125 4.625 C-2 2 -2 2 0 0 Z " fill="#FCDFCF" transform="translate(36,0)"/>
<path d="M0 0 C-0.66 0 -1.32 0 -2 0 C-2 0.66 -2 1.32 -2 2 C-0.02 2 1.96 2 4 2 C4.33 2.99 4.66 3.98 5 5 C-1.27 5 -7.54 5 -14 5 C-5.07692308 -1.69230769 -5.07692308 -1.69230769 0 0 Z " fill="#F85018" transform="translate(26,170)"/>
<path d="M0 0 C0.33 0.66 0.66 1.32 1 2 C0.328125 3.91015625 0.328125 3.91015625 -0.75 6.0625 C-1.09546875 6.77535156 -1.4409375 7.48820312 -1.796875 8.22265625 C-3 10 -3 10 -6 11 C-6.0825 11.78375 -6.165 12.5675 -6.25 13.375 C-6.4975 14.24125 -6.745 15.1075 -7 16 C-8.9375 17.0625 -8.9375 17.0625 -11 18 C-12.22527948 19.95021083 -12.22527948 19.95021083 -13 22 C-13.33 22.66 -13.66 23.32 -14 24 C-14.66 23.67 -15.32 23.34 -16 23 C-14.27164846 20.47860449 -12.54234179 17.95787282 -10.8125 15.4375 C-10.32974609 14.73302734 -9.84699219 14.02855469 -9.34960938 13.30273438 C-6.28062349 8.83313748 -3.16449343 4.40252194 0 0 Z " fill="#E5461B" transform="translate(83,66)"/>
<path d="M0 0 C2.31 0 4.62 0 7 0 C4.26657136 3.31263099 0.62186715 4.85355045 -3.1875 6.625 C-4.13979492 7.09292969 -4.13979492 7.09292969 -5.11132812 7.5703125 C-9.77204404 9.75693756 -13.86949863 10.57768954 -19 11 C-18.67 10.01 -18.34 9.02 -18 8 C-15.26953125 7.12109375 -15.26953125 7.12109375 -11.8125 6.4375 C-7.41064702 5.54706803 -3.23689663 4.49802263 1 3 C0.67 2.01 0.34 1.02 0 0 Z " fill="#E93707" transform="translate(52,155)"/>
<path d="M0 0 C-1.32 0.33 -2.64 0.66 -4 1 C-4 1.66 -4 2.32 -4 3 C-5.07378906 3.19335938 -6.14757812 3.38671875 -7.25390625 3.5859375 C-8.69013733 3.84877718 -10.1263334 4.11180824 -11.5625 4.375 C-12.26697266 4.50132812 -12.97144531 4.62765625 -13.69726562 4.7578125 C-17.15559941 5.39529338 -20.40571352 6.12502857 -23.77734375 7.1640625 C-26.81899542 7.95304851 -28.14250437 8.14299825 -31 7 C-5.63157895 -1.87719298 -5.63157895 -1.87719298 0 0 Z " fill="#BC4E26" transform="translate(113,147)"/>
<path d="M0 0 C0.99 0.33 1.98 0.66 3 1 C1.06647812 3.60714174 -0.87250285 6.21017395 -2.8125 8.8125 C-3.35970703 9.55048828 -3.90691406 10.28847656 -4.47070312 11.04882812 C-5.26831055 12.11713867 -5.26831055 12.11713867 -6.08203125 13.20703125 C-6.56905518 13.8616333 -7.0560791 14.51623535 -7.55786133 15.19067383 C-8.94038507 16.92520633 -10.40004028 18.46644587 -12 20 C-12 18.68 -12 17.36 -12 16 C-11.34 16 -10.68 16 -10 16 C-9.9175 15.21625 -9.835 14.4325 -9.75 13.625 C-9 11 -9 11 -6.9375 9.6875 C-6.298125 9.460625 -5.65875 9.23375 -5 9 C-5 8.34 -5 7.68 -5 7 C-4.34 7 -3.68 7 -3 7 C-3 6.01 -3 5.02 -3 4 C-2.34 4 -1.68 4 -1 4 C-0.67 2.68 -0.34 1.36 0 0 Z " fill="#F8DEC6" transform="translate(34,128)"/>
<path d="M0 0 C-2.43598808 1.31537364 -4.8736825 2.62739143 -7.3125 3.9375 C-8.00279297 4.31068359 -8.69308594 4.68386719 -9.40429688 5.06835938 C-10.07138672 5.42607422 -10.73847656 5.78378906 -11.42578125 6.15234375 C-12.03848877 6.48226318 -12.65119629 6.81218262 -13.2824707 7.15209961 C-15 8 -15 8 -18 9 C-19.20882096 11.00016466 -19.20882096 11.00016466 -20 13 C-20.6875 11.1875 -20.6875 11.1875 -21 9 C-18.99867374 6.56028799 -16.80677754 5.19994117 -14 3.8125 C-13.319375 3.46832031 -12.63875 3.12414062 -11.9375 2.76953125 C-10 2 -10 2 -7 2 C-7 1.34 -7 0.68 -7 0 C-3.86650268 -1.04449911 -3.01031744 -0.93423645 0 0 Z " fill="#FEECD8" transform="translate(63,107)"/>
<path d="M0 0 C0.66 0.66 1.32 1.32 2 2 C1.625 4.625 1.625 4.625 1 7 C0.34 7 -0.32 7 -1 7 C-1.99 11.95 -2.98 16.9 -4 22 C-4.99 22.33 -5.98 22.66 -7 23 C-6.40336519 20.47717364 -5.79794859 17.9569878 -5.1875 15.4375 C-5.02185547 14.73302734 -4.85621094 14.02855469 -4.68554688 13.30273438 C-3.54083058 8.61587709 -2.01178987 4.38673952 0 0 Z " fill="#F7D1C5" transform="translate(106,101)"/>
<path d="M0 0 C-1.98 1.32 -3.96 2.64 -6 4 C-6.33 3.34 -6.66 2.68 -7 2 C-10.9167686 0.76901558 -14.02389268 1.16779149 -18 2 C-15.72674319 -0.71042158 -14.40421209 -1.89276006 -10.9375 -2.8125 C-6.97476841 -3.06544031 -3.54230224 -1.77115112 0 0 Z " fill="#EF742F" transform="translate(146,22)"/>
<path d="M0 0 C0.33 0 0.66 0 1 0 C1.2196777 3.14871372 1.10355446 5.6574737 0.1875 8.6875 C-2.48936281 11.5173264 -3.31791249 11.36823559 -7.10546875 11.48828125 C-9.13338658 11.4550367 -11.16100447 11.39539629 -13.1875 11.3125 C-14.22326172 11.28994141 -15.25902344 11.26738281 -16.32617188 11.24414062 C-18.88556404 11.18516846 -21.44205951 11.10292567 -24 11 C-24 10.67 -24 10.34 -24 10 C-22.83082031 9.93941406 -21.66164062 9.87882813 -20.45703125 9.81640625 C-18.90884386 9.73195966 -17.36066732 9.64731375 -15.8125 9.5625 C-15.04357422 9.52318359 -14.27464844 9.48386719 -13.48242188 9.44335938 C-9.56748925 9.22492966 -5.82879312 8.91307892 -2 8 C-2 6.68 -2 5.36 -2 4 C-1.34 4 -0.68 4 0 4 C0 2.68 0 1.36 0 0 Z " fill="#F3652A" transform="translate(168,164)"/>
<path d="M0 0 C0.33 0 0.66 0 1 0 C1.33 1.98 1.66 3.96 2 6 C0.68 6.33 -0.64 6.66 -2 7 C-2 8.32 -2 9.64 -2 11 C0.31 11 2.62 11 5 11 C2.09907498 12.93395001 1.10325263 13.30131941 -2.1875 13.625 C-3.445625 13.74875 -4.70375 13.8725 -6 14 C-5.18836991 12.04130597 -4.37566899 10.08305564 -3.5625 8.125 C-3.11003906 7.03445312 -2.65757813 5.94390625 -2.19140625 4.8203125 C-1.50456537 3.19441376 -0.78934113 1.57868226 0 0 Z " fill="#E8612E" transform="translate(19,41)"/>
<path d="M0 0 C0.94875 0.04125 1.8975 0.0825 2.875 0.125 C3.25 2.375 3.25 2.375 2.875 5.125 C-0.09136451 7.67745318 -2.06900059 9.03317396 -6 9.375 C-6.70125 9.2925 -7.4025 9.21 -8.125 9.125 C-6.6611389 4.73341671 -4.14668662 4.24552567 -0.125 2.125 C-1.775 2.125 -3.425 2.125 -5.125 2.125 C-3.125 0.125 -3.125 0.125 0 0 Z " fill="#DA4719" transform="translate(145.125,19.875)"/>
<path d="M0 0 C0 0.66 0 1.32 0 2 C-0.99 2.495 -0.99 2.495 -2 3 C-0.68 3.66 0.64 4.32 2 5 C0.08654673 5.53251766 -1.8309295 6.05059483 -3.75 6.5625 C-4.81734375 6.85253906 -5.8846875 7.14257812 -6.984375 7.44140625 C-9.84335927 7.97098494 -11.31597383 7.98370862 -14 7 C-12.04480616 5.82807953 -10.0857461 4.6626071 -8.125 3.5 C-7.03445312 2.8503125 -5.94390625 2.200625 -4.8203125 1.53125 C-2 0 -2 0 0 0 Z " fill="#F9CCC0" transform="translate(63,154)"/>
<path d="M0 0 C1.32 0.66 2.64 1.32 4 2 C-12.26666667 12 -12.26666667 12 -16 12 C-15.67 11.01 -15.34 10.02 -15 9 C-13.68 9 -12.36 9 -11 9 C-10.67 8.01 -10.34 7.02 -10 6 C-7.71656402 5.05149582 -5.41923272 4.47853022 -3.03125 3.84375 C-2.3609375 3.5653125 -1.690625 3.286875 -1 3 C-0.67 2.01 -0.34 1.02 0 0 Z " fill="#BB3C25" transform="translate(75,143)"/>
<path d="M0 0 C0.66 0.33 1.32 0.66 2 1 C-2.95 4.63 -7.9 8.26 -13 12 C-13.33 11.01 -13.66 10.02 -14 9 C-13.01 8.67 -12.02 8.34 -11 8 C-10.67 7.01 -10.34 6.02 -10 5 C-7.78515625 3.578125 -7.78515625 3.578125 -5.0625 2.25 C-4.16660156 1.80140625 -3.27070312 1.3528125 -2.34765625 0.890625 C-1.18556641 0.44976562 -1.18556641 0.44976562 0 0 Z " fill="#F78845" transform="translate(107,86)"/>
<path d="M0 0 C1.07765625 0.01804688 2.1553125 0.03609375 3.265625 0.0546875 C4.49539062 0.08949219 4.49539062 0.08949219 5.75 0.125 C2.89521674 2.02818884 1.33058692 2.5869099 -1.9375 3.25 C-2.74574219 3.41757812 -3.55398437 3.58515625 -4.38671875 3.7578125 C-5.00160156 3.87898438 -5.61648437 4.00015625 -6.25 4.125 C-6.25 4.785 -6.25 5.445 -6.25 6.125 C-7.9 5.795 -9.55 5.465 -11.25 5.125 C-10.25 2.125 -10.25 2.125 -8.578125 0.9453125 C-5.61411661 -0.09905287 -3.13557132 -0.06816459 0 0 Z " fill="#F36224" transform="translate(54.25,41.875)"/>
<path d="M0 0 C0.33 0 0.66 0 1 0 C1.3125 3.1875 1.3125 3.1875 1 7 C-1.4375 9.8125 -1.4375 9.8125 -4 12 C-4.33 12.66 -4.66 13.32 -5 14 C-6.32 13.67 -7.64 13.34 -9 13 C-7.52485505 10.8304939 -6.0451561 8.66436293 -4.5625 6.5 C-4.14162109 5.87996094 -3.72074219 5.25992187 -3.28710938 4.62109375 C-2.21691863 3.06289602 -1.11120482 1.52921949 0 0 Z " fill="#FCEEDC" transform="translate(188,26)"/>
<path d="M0 0 C0.33 0.66 0.66 1.32 1 2 C-0.72861157 6.36701869 -1.91644014 7.95822007 -6 10 C-6.81171228 12.55519921 -6.81171228 12.55519921 -7 15 C-7.99 15 -8.98 15 -10 15 C-10 15.99 -10 16.98 -10 18 C-10.99 17.67 -11.98 17.34 -13 17 C-6.565 8.585 -6.565 8.585 0 0 Z " fill="#FBE5CF" transform="translate(202,8)"/>
<path d="M0 0 C1.30195312 0.00322266 2.60390625 0.00644531 3.9453125 0.00976562 C5.32552149 0.01812159 6.70572982 0.02658654 8.0859375 0.03515625 C9.47395676 0.04017124 10.86197772 0.04473415 12.25 0.04882812 C15.65368882 0.06064649 19.05729189 0.07712191 22.4609375 0.09765625 C22.4609375 0.42765625 22.4609375 0.75765625 22.4609375 1.09765625 C21.26549316 1.12738525 21.26549316 1.12738525 20.04589844 1.15771484 C16.43391278 1.25298873 12.82250351 1.36265932 9.2109375 1.47265625 C7.32955078 1.5190625 7.32955078 1.5190625 5.41015625 1.56640625 C4.20488281 1.60507812 2.99960937 1.64375 1.7578125 1.68359375 C0.09250488 1.7307251 0.09250488 1.7307251 -1.60644531 1.77880859 C-4.4553406 2.08855362 -6.1621401 2.53228108 -8.5390625 4.09765625 C-8.8690625 4.75765625 -9.1990625 5.41765625 -9.5390625 6.09765625 C-9.1640625 3.66015625 -9.1640625 3.66015625 -8.5390625 1.09765625 C-5.66887809 -0.33743596 -3.20362527 -0.01392881 0 0 Z " fill="#ED7134" transform="translate(46.5390625,1.90234375)"/>
<path d="M0 0 C0 0.66 0 1.32 0 2 C-6.24273068 4.4793824 -11.28299653 5.31985731 -18 5 C-15.05585347 3.03723564 -12.94101364 2.28266038 -9.5625 1.375 C-8.61503906 1.11460938 -7.66757812 0.85421875 -6.69140625 0.5859375 C-4 0 -4 0 0 0 Z " fill="#F9DACD" transform="translate(30,53)"/>
<path d="M0 0 C-4.0048918 2.66992787 -7.69222779 3.9738683 -12.375 4.9375 C-16.5554496 5.81280352 -20.13669492 7.19164443 -24 9 C-23.51953125 7.171875 -23.51953125 7.171875 -22 5 C-19.33043508 3.72929642 -16.53866996 3.00745367 -13.6875 2.25 C-12.92759766 2.02957031 -12.16769531 1.80914062 -11.38476562 1.58203125 C-7.50920582 0.4978173 -4.06271063 -0.2919313 0 0 Z " fill="#E03F02" transform="translate(171,14)"/>
<path d="M0 0 C-5.85797948 2.86390108 -11.57409836 4.0122936 -18 5 C-17.67 4.01 -17.34 3.02 -17 2 C-13.9453125 1.015625 -13.9453125 1.015625 -10.125 0.25 C-8.24167969 -0.14445313 -8.24167969 -0.14445313 -6.3203125 -0.546875 C-3 -1 -3 -1 0 0 Z " fill="#F97728" transform="translate(159,16)"/>
<path d="M0 0 C-4.75 3 -4.75 3 -7 3 C-7 3.66 -7 4.32 -7 5 C-8.98 5.99 -10.96 6.98 -13 8 C-13 7.34 -13 6.68 -13 6 C-13.99 5.34 -14.98 4.68 -16 4 C-13.90049414 3.13444052 -11.7952093 2.28288723 -9.6875 1.4375 C-8.51574219 0.96183594 -7.34398437 0.48617188 -6.13671875 -0.00390625 C-3 -1 -3 -1 0 0 Z " fill="#CE4F08" transform="translate(201,5)"/>
<path d="M0 0 C0.33 0.99 0.66 1.98 1 3 C0.01 4.98 -0.98 6.96 -2 9 C-9.26 8.67 -16.52 8.34 -24 8 C-24 7.67 -24 7.34 -24 7 C-13.605 6.505 -13.605 6.505 -3 6 C-2.01 4.02 -1.02 2.04 0 0 Z " fill="#CF5829" transform="translate(169,168)"/>
<path d="M0 0 C0.66 0.33 1.32 0.66 2 1 C-12.7 11 -12.7 11 -17 11 C-16.67 10.01 -16.34 9.02 -16 8 C-14.01276732 7.29618843 -12.01222047 6.6288189 -10 6 C-9.67 5.34 -9.34 4.68 -9 4 C-7.1875 3.18359375 -7.1875 3.18359375 -5 2.4375 C-2.26066983 1.60962158 -2.26066983 1.60962158 0 0 Z " fill="#BD3F21" transform="translate(120,68)"/>
<path d="M0 0 C0.99 0.33 1.98 0.66 3 1 C0.33224795 4.55700273 -2.2825095 7.521673 -6 10 C-6.99 9.67 -7.98 9.34 -9 9 C-6.33224795 5.44299727 -3.7174905 2.478327 0 0 Z " fill="#FD943A" transform="translate(143,49)"/>
<path d="M0 0 C0 0.66 0 1.32 0 2 C-1.65 2.66 -3.3 3.32 -5 4 C-5 4.66 -5 5.32 -5 6 C-5.639375 6.28875 -6.27875 6.5775 -6.9375 6.875 C-9.15206079 7.82823451 -9.15206079 7.82823451 -10 10 C-10.66 10 -11.32 10 -12 10 C-12 10.66 -12 11.32 -12 12 C-13.65 12.33 -15.3 12.66 -17 13 C-4.8125 0 -4.8125 0 0 0 Z " fill="#D83F05" transform="translate(104,91)"/>
<path d="M0 0 C0.66 0.33 1.32 0.66 2 1 C1.67 1.99 1.34 2.98 1 4 C2.32 4.33 3.64 4.66 5 5 C-0.625 8 -0.625 8 -4 8 C-3 6 -3 6 -2 5 C-3.65 5 -5.3 5 -7 5 C-4.702779 3.25728062 -2.40133271 1.60088848 0 0 Z " fill="#F8DAC9" transform="translate(94,84)"/>
<path d="M0 0 C0.33 0.66 0.66 1.32 1 2 C-0.43452447 3.93976579 -1.87246817 5.87682931 -3.3125 7.8125 C-3.71662109 8.35970703 -4.12074219 8.90691406 -4.53710938 9.47070312 C-6.54284347 12.16132204 -8.5291298 14.72104205 -11 17 C-11.3125 14.1875 -11.3125 14.1875 -11 11 C-9.36816893 9.94410931 -7.69207001 8.9563874 -6 8 C-3.82842503 5.45208651 -1.90271454 2.75272448 0 0 Z " fill="#C3803E" transform="translate(167,52)"/>
<path d="M0 0 C-0.66 0 -1.32 0 -2 0 C-2 0.66 -2 1.32 -2 2 C-7.48675196 3.86783046 -12.22192976 4.2358396 -18 4 C-15.07089056 2.04726038 -12.91867709 1.24603637 -9.5625 0.3125 C-8.61503906 0.04050781 -7.66757812 -0.23148438 -6.69140625 -0.51171875 C-4.01081763 -0.99803744 -2.53712417 -0.89369149 0 0 Z " fill="#F9D4C5" transform="translate(48,49)"/>
<path d="M0 0 C-3.4334517 1.03480605 -6.87229026 2.05040959 -10.3125 3.0625 C-11.28896484 3.35705078 -12.26542969 3.65160156 -13.27148438 3.95507812 C-14.20927734 4.22900391 -15.14707031 4.50292969 -16.11328125 4.78515625 C-16.97735596 5.04176025 -17.84143066 5.29836426 -18.73168945 5.56274414 C-21 6 -21 6 -24 5 C-23.14535156 4.72285156 -22.29070313 4.44570313 -21.41015625 4.16015625 C-20.30542969 3.79792969 -19.20070313 3.43570313 -18.0625 3.0625 C-16.96035156 2.70285156 -15.85820313 2.34320313 -14.72265625 1.97265625 C-12.11876525 1.26143332 -12.11876525 1.26143332 -11 0 C-6.97279717 -0.75984959 -3.92759816 -1.16180608 0 0 Z " fill="#B34720" transform="translate(72,41)"/>
<path d="M0 0 C0.66 0 1.32 0 2 0 C1.42676569 3.86933162 -0.38953552 6.15222057 -3 9 C-3.66 9 -4.32 9 -5 9 C-5.33 10.65 -5.66 12.3 -6 14 C-6.66 13.67 -7.32 13.34 -8 13 C-7.34 10.69 -6.68 8.38 -6 6 C-5.01 6.33 -4.02 6.66 -3 7 C-3 6.01 -3 5.02 -3 4 C-2.34 4 -1.68 4 -1 4 C-0.67 2.68 -0.34 1.36 0 0 Z " fill="#F3872F" transform="translate(136,88)"/>
<path d="M0 0 C1.109375 1.61328125 1.109375 1.61328125 2 4 C1.390625 6.98046875 1.390625 6.98046875 0.25 10.1875 C-0.11609375 11.25355469 -0.4821875 12.31960937 -0.859375 13.41796875 C-2 16 -2 16 -4 17 C-3.45018084 10.95198929 -2.09570426 5.69398894 0 0 Z " fill="#F4C9C1" transform="translate(111,84)"/>
<path d="M0 0 C0.99 0.66 1.98 1.32 3 2 C-0.82989106 3.80230168 -3.78121808 4.19622241 -8 4 C-7.6875 2.0625 -7.6875 2.0625 -7 0 C-3.8195064 -1.06016453 -3.04021693 -1.04507457 0 0 Z " fill="#FDF3E7" transform="translate(103,84)"/>
<path d="M0 0 C0.66 0.33 1.32 0.66 2 1 C-0.12405077 6.4556837 -2.27176143 11.81634671 -5 17 C-5.33 17 -5.66 17 -6 17 C-6.25 11.375 -6.25 11.375 -4 8 C-3.34 8 -2.68 8 -2 8 C-1.855625 7.236875 -1.71125 6.47375 -1.5625 5.6875 C-1 3 -1 3 0 0 Z " fill="#CD602B" transform="translate(185,133)"/>
<path d="M0 0 C0.99 0.33 1.98 0.66 3 1 C2.34 1 1.68 1 1 1 C0.67 1.99 0.34 2.98 0 4 C-1.65002828 5.35386936 -3.3174387 6.68678142 -5 8 C-5.99 9.485 -5.99 9.485 -7 11 C-7.99 10.67 -8.98 10.34 -10 10 C-8.7121669 8.51749445 -7.41960936 7.03909182 -6.125 5.5625 C-5.40570313 4.73878906 -4.68640625 3.91507813 -3.9453125 3.06640625 C-2 1 -2 1 0 0 Z " fill="#FB994A" transform="translate(130,60)"/>
<path d="M0 0 C1.63001953 0.01353516 1.63001953 0.01353516 3.29296875 0.02734375 C4.12441406 0.03894531 4.95585938 0.05054687 5.8125 0.0625 C5.8125 0.3925 5.8125 0.7225 5.8125 1.0625 C3.377536 1.76034331 0.94022895 2.44603822 -1.5 3.125 C-2.53543945 3.42374023 -2.53543945 3.42374023 -3.59179688 3.72851562 C-8.84765625 5.17578125 -8.84765625 5.17578125 -12.1875 4.0625 C-11.5275 4.0625 -10.8675 4.0625 -10.1875 4.0625 C-9.8575 3.0725 -9.5275 2.0825 -9.1875 1.0625 C-5.90230525 -0.03256492 -3.45086585 -0.03710608 0 0 Z " fill="#F26C29" transform="translate(114.1875,25.9375)"/>
<path d="M0 0 C1.0326802 2.78823655 1.04509293 3.8677274 0.0625 6.75 C-0.288125 7.4925 -0.63875 8.235 -1 9 C-2.32 9 -3.64 9 -5 9 C-5 6.36 -5 3.72 -5 1 C-4.67 1.66 -4.34 2.32 -4 3 C-3.01 2.67 -2.02 2.34 -1 2 C-0.67 1.34 -0.34 0.68 0 0 Z " fill="#F08330" transform="translate(121,108)"/>
<path d="M0 0 C0 0.66 0 1.32 0 2 C-6.11404596 3.85743168 -11.58518742 5.42765417 -18 5 C-15.05585347 3.03723564 -12.94101364 2.28266038 -9.5625 1.375 C-8.61503906 1.11460938 -7.66757813 0.85421875 -6.69140625 0.5859375 C-4 0 -4 0 0 0 Z " fill="#F3C8B3" transform="translate(91,36)"/>
<path d="M0 0 C-0.4793247 4.31392226 -1.7457985 6.16569547 -5 9 C-6 8 -6 8 -6.3125 5.625 C-6 3 -6 3 -4.125 1.1875 C-2 0 -2 0 0 0 Z " fill="#DF8745" transform="translate(203,4)"/>
<path d="M0 0 C0.33 0.66 0.66 1.32 1 2 C-0.3125 4.625 -0.3125 4.625 -2 7 C-2.66 7 -3.32 7 -4 7 C-4.99 9.97 -5.98 12.94 -7 16 C-7.99 16 -8.98 16 -10 16 C-8.55797524 11.84848662 -6.4989562 8.70021555 -3.875 5.1875 C-3.15054687 4.21167969 -2.42609375 3.23585937 -1.6796875 2.23046875 C-0.84824219 1.12638672 -0.84824219 1.12638672 0 0 Z " fill="#BA6744" transform="translate(13,161)"/>
<path d="M0 0 C0.33 0 0.66 0 1 0 C1.22937511 4.71652565 0.46206455 8.3974273 -1 12.875 C-1.37125 14.02742188 -1.7425 15.17984375 -2.125 16.3671875 C-2.41375 17.23601562 -2.7025 18.10484375 -3 19 C-3.66 18.67 -4.32 18.34 -5 18 C-1.92482916 5.33029613 -1.92482916 5.33029613 0 0 Z " fill="#EF4419" transform="translate(100,106)"/>
<path d="M0 0 C1.1966746 3.59002381 1.05505768 5.38265938 0 9 C-2.4375 10.9375 -2.4375 10.9375 -5 12 C-5.66 11.67 -6.32 11.34 -7 11 C-6.401875 10.113125 -5.80375 9.22625 -5.1875 8.3125 C-3.38159753 5.57784769 -1.66104089 2.82376952 0 0 Z " fill="#AD4A37" transform="translate(62,93)"/>
<path d="M0 0 C1.56454159 4.02014661 0.46223974 7.69925681 -0.4375 11.75 C-0.58509766 12.44738281 -0.73269531 13.14476563 -0.88476562 13.86328125 C-1.24868033 15.5772021 -1.62329068 17.28884581 -2 19 C-2.33 19 -2.66 19 -3 19 C-3.22162329 17.37675914 -3.42689803 15.751279 -3.625 14.125 C-3.74101563 13.22007813 -3.85703125 12.31515625 -3.9765625 11.3828125 C-3.98429687 10.59648438 -3.99203125 9.81015625 -4 9 C-3.34 8.34 -2.68 7.68 -2 7 C-1.28072705 4.68234271 -0.6090107 2.34904126 0 0 Z " fill="#FDEFDC" transform="translate(118,81)"/>
<path d="M0 0 C1.65 0 3.3 0 5 0 C2.7360039 2.46717524 0.40939756 4.10134139 -2.5 5.75 C-3.66015625 6.42289062 -3.66015625 6.42289062 -4.84375 7.109375 C-7 8 -7 8 -10 7 C-9.34 7 -8.68 7 -8 7 C-8 6.34 -8 5.68 -8 5 C-7.01 5 -6.02 5 -5 5 C-5 4.01 -5 3.02 -5 2 C-3.68 2 -2.36 2 -1 2 C-0.67 1.34 -0.34 0.68 0 0 Z " fill="#C13B22" transform="translate(89,84)"/>
<path d="M0 0 C-2.97 3.96 -2.97 3.96 -6 8 C-6.66 7.67 -7.32 7.34 -8 7 C-7.42415568 4.61435923 -6.77772405 2.33317216 -6 0 C-3 -1 -3 -1 0 0 Z " fill="#D68545" transform="translate(156,70)"/>
<path d="M0 0 C0.66 0.33 1.32 0.66 2 1 C1.65120368 4.25543229 0.97866739 5.01873107 -1.5625 7.25 C-2.7690625 8.11625 -2.7690625 8.11625 -4 9 C-4.33 7.35 -4.66 5.7 -5 4 C-3.35 2.68 -1.7 1.36 0 0 Z " fill="#F58325" transform="translate(28,147)"/>
<path d="M0 0 C-4.54428546 3.02952364 -9.539338 5.25108796 -15.0625 4.6875 C-15.701875 4.460625 -16.34125 4.23375 -17 4 C-15.68 3.67 -14.36 3.34 -13 3 C-13 2.34 -13 1.68 -13 1 C-8.62426048 0.40667939 -4.42471556 -0.13827236 0 0 Z " fill="#C2602F" transform="translate(139,22)"/>
<path d="M0 0 C3.63 0.33 7.26 0.66 11 1 C7.3750203 2.81248985 5.62740416 3.31888915 1.75 3.625 C0.85796875 3.69976562 -0.0340625 3.77453125 -0.953125 3.8515625 C-1.62859375 3.90054688 -2.3040625 3.94953125 -3 4 C-2.67 3.34 -2.34 2.68 -2 2 C-1.34 2 -0.68 2 0 2 C0 1.34 0 0.68 0 0 Z " fill="#FEECE3" transform="translate(63,154)"/>
<path d="M0 0 C0.99 0.33 1.98 0.66 3 1 C1.93204565 5.50066475 0.85961414 9.7494534 -1 14 C-1.33 14 -1.66 14 -2 14 C-2.21192221 8.80790596 -1.5912689 4.873261 0 0 Z " fill="#C6371A" transform="translate(103,99)"/>
<path d="M0 0 C0.66 0.66 1.32 1.32 2 2 C-2.455 3.485 -2.455 3.485 -7 5 C-7.33 3.68 -7.66 2.36 -8 1 C-4.9553071 -0.84856355 -3.35670253 -1.34268101 0 0 Z " fill="#EB521E" transform="translate(54,163)"/>
<path d="M0 0 C0 4.7105713 -2.66814946 8.41202436 -5.625 11.9375 C-7 13 -7 13 -9 13 C-7.50923566 9.7173068 -5.61379679 7.06922559 -3.375 4.25 C-2.74335938 3.45078125 -2.11171875 2.6515625 -1.4609375 1.828125 C-0.97882813 1.22484375 -0.49671875 0.6215625 0 0 Z " fill="#FAE6CD" transform="translate(160,64)"/>
<path d="M0 0 C3.4375 0.375 3.4375 0.375 5.4375 2.375 C1.3169254 4.37285435 -2.01444365 4.55335515 -6.5625 4.375 C-4.71562606 0.89853141 -4.02907592 0.42411325 0 0 Z " fill="#EE642D" transform="translate(115.5625,144.625)"/>
<path d="M0 0 C0 3.56216738 -0.7021901 4.22928478 -2.875 6.9375 C-4.94538063 9.53297716 -6.60834145 11.98023607 -8 15 C-8.66 15 -9.32 15 -10 15 C-8.59601721 10.89889238 -6.62912962 8.01910841 -3.875 4.6875 C-3.15054688 3.80449219 -2.42609375 2.92148438 -1.6796875 2.01171875 C-1.12539063 1.34785156 -0.57109375 0.68398437 0 0 Z " fill="#EF8C3D" transform="translate(46,118)"/>
<path d="M0 0 C-0.33 0.99 -0.66 1.98 -1 3 C-5.21793246 5.06761395 -9.52050867 6.57967348 -14 8 C-10.67417683 4.11987297 -5.34770586 0 0 0 Z " fill="#EF8B3C" transform="translate(61,110)"/>
<path d="M0 0 C-1.95519384 1.17192047 -3.9142539 2.3373929 -5.875 3.5 C-6.96554688 4.1496875 -8.05609375 4.799375 -9.1796875 5.46875 C-12 7 -12 7 -14 7 C-14 6.34 -14 5.68 -14 5 C-13.01 5 -12.02 5 -11 5 C-11 4.34 -11 3.68 -11 3 C-9.35 2.67 -7.7 2.34 -6 2 C-6 1.34 -6 0.68 -6 0 C-3 -1 -3 -1 0 0 Z " fill="#FEE2D9" transform="translate(108,42)"/>
<path d="M0 0 C0.66 0.33 1.32 0.66 2 1 C0.02 5.29 -1.96 9.58 -4 14 C-5.10191901 9.59232396 -4.58706842 8.1077065 -3 4 C-2.34 4 -1.68 4 -1 4 C-0.67 2.68 -0.34 1.36 0 0 Z " fill="#FBDECF" transform="translate(20,32)"/>
<path d="M0 0 C-0.99 0 -1.98 0 -3 0 C-3.33 0.99 -3.66 1.98 -4 3 C-7.3 3 -10.6 3 -14 3 C-9.7368213 0.15788087 -5.03577274 -2.0143091 0 0 Z " fill="#F7CDBC" transform="translate(73,42)"/>
<path d="M0 0 C0.99 0 1.98 0 3 0 C1.50923566 3.2826932 -0.38620321 5.93077441 -2.625 8.75 C-3.57246094 9.94882812 -3.57246094 9.94882812 -4.5390625 11.171875 C-5.02117187 11.77515625 -5.50328125 12.3784375 -6 13 C-6 9.62268144 -5.54983086 9.0672036 -3.5625 6.5 C-1.80256117 4.21358374 -0.93348793 2.80046379 0 0 Z " fill="#C17841" transform="translate(195,13)"/>
<path d="M0 0 C0.66 0.33 1.32 0.66 2 1 C2 1.66 2 2.32 2 3 C-4.27 3 -10.54 3 -17 3 C-17 2.67 -17 2.34 -17 2 C-13.17227184 1.36204531 -9.57077935 0.94320615 -5.6875 1 C-2.17702205 1.27485002 -2.17702205 1.27485002 0 0 Z " fill="#F95724" transform="translate(29,172)"/>
<path d="M0 0 C-0.33 1.32 -0.66 2.64 -1 4 C-3.97 4.66 -6.94 5.32 -10 6 C-4.4 0 -4.4 0 0 0 Z " fill="#F5CDC2" transform="translate(85,142)"/>
<path d="M0 0 C-3.83325617 2.70582788 -6.32538149 3.32613618 -11 3 C-11 2.34 -11 1.68 -11 1 C-3.57142857 -1.42857143 -3.57142857 -1.42857143 0 0 Z " fill="#C75928" transform="translate(142,139)"/>
<path d="M0 0 C0.66 0.33 1.32 0.66 2 1 C1.71517632 2.41805831 1.42181856 3.83440379 1.125 5.25 C0.88136719 6.43335937 0.88136719 6.43335937 0.6328125 7.640625 C0.00849925 9.96831144 -0.84838542 11.89031952 -2 14 C-1.85923685 12.0412957 -1.7122324 10.08303907 -1.5625 8.125 C-1.48128906 7.03445312 -1.40007812 5.94390625 -1.31640625 4.8203125 C-1 2 -1 2 0 0 Z " fill="#C15239" transform="translate(100,112)"/>
<path d="M0 0 C-2.2008849 2.47859908 -4.06372969 3.61210366 -7.1875 4.6875 C-8.26064453 5.06455078 -8.26064453 5.06455078 -9.35546875 5.44921875 C-9.89816406 5.63097656 -10.44085938 5.81273437 -11 6 C-11 5.34 -11 4.68 -11 4 C-10.360625 3.896875 -9.72125 3.79375 -9.0625 3.6875 C-8.381875 3.460625 -7.70125 3.23375 -7 3 C-6.67 2.01 -6.34 1.02 -6 0 C-3.42525708 -0.99667468 -2.51072708 -1.25536354 0 0 Z " fill="#E2431D" transform="translate(114,42)"/>
<path d="M0 0 C1.134375 0.020625 2.26875 0.04125 3.4375 0.0625 C3.1075 1.0525 2.7775 2.0425 2.4375 3.0625 C-0.625 4.25 -0.625 4.25 -3.5625 5.0625 C-4.125 3.125 -4.125 3.125 -4.5625 1.0625 C-3.5625 0.0625 -3.5625 0.0625 0 0 Z " fill="#F7CBB9" transform="translate(135.5625,23.9375)"/>
<path d="M0 0 C0.33 0.66 0.66 1.32 1 2 C1.99 2.33 2.98 2.66 4 3 C1.53721199 5.46278801 -0.70676982 5.99771255 -4 7 C-2.92598892 4.08482708 -2.22189824 2.22189824 0 0 Z " fill="#F3843F" transform="translate(17,158)"/>
<path d="M0 0 C-3.75 3 -3.75 3 -6 3 C-6.66 4.32 -7.32 5.64 -8 7 C-8.6875 5.1875 -8.6875 5.1875 -9 3 C-6.45499263 -0.43575995 -4.12762351 -1.3758745 0 0 Z " fill="#F8E2CC" transform="translate(51,113)"/>
<path d="M0 0 C0.99 0.33 1.98 0.66 3 1 C1.68775452 4.93673644 0.08089673 7.22719294 -3 10 C-3 8.68 -3 7.36 -3 6 C-2.34 6 -1.68 6 -1 6 C-0.67 4.02 -0.34 2.04 0 0 Z " fill="#FADDD3" transform="translate(61,89)"/>
<path d="M0 0 C0.53625 0.37125 1.0725 0.7425 1.625 1.125 C-0.375 3.125 -0.375 3.125 -2.3203125 3.3203125 C-4.33854167 3.25520833 -6.35677083 3.19010417 -8.375 3.125 C-8.375 2.465 -8.375 1.805 -8.375 1.125 C-2.95961538 -1.09038462 -2.95961538 -1.09038462 0 0 Z " fill="#D85724" transform="translate(44.375,45.875)"/>
<path d="M0 0 C1.32 0.33 2.64 0.66 4 1 C2.02 4.63 0.04 8.26 -2 12 C-2.33 11.34 -2.66 10.68 -3 10 C-2 8 -1 6 0 4 C0 2.68 0 1.36 0 0 Z " fill="#AA5C3D" transform="translate(189,124)"/>
<path d="M0 0 C0.33 0.66 0.66 1.32 1 2 C0 5 0 5 -2.375 6.1875 C-5 7 -5 7 -8 7 C-6.71034824 5.62437146 -5.37310707 4.29233607 -4 3 C-3.34 3 -2.68 3 -2 3 C-2 2.34 -2 1.68 -2 1 C-1.34 0.67 -0.68 0.34 0 0 Z " fill="#F03F0F" transform="translate(106,90)"/>
<path d="M0 0 C0.33 0.66 0.66 1.32 1 2 C0.67 2.99 0.34 3.98 0 5 C-0.66 5 -1.32 5 -2 5 C-2.33 6.32 -2.66 7.64 -3 9 C-3.99 9 -4.98 9 -6 9 C-4.47291037 5.56404834 -2.40072955 2.88087546 0 0 Z " fill="#F9E7CA" transform="translate(173,47)"/>
<path d="M0 0 C0.0825 0.61875 0.165 1.2375 0.25 1.875 C0.81258459 4.18437567 0.81258459 4.18437567 3.0625 5.25 C3.701875 5.4975 4.34125 5.745 5 6 C2.36 6.66 -0.28 7.32 -3 8 C-1.125 2.25 -1.125 2.25 0 0 Z " fill="#AA5D4D" transform="translate(13,50)"/>
<path d="M0 0 C0.66 0.33 1.32 0.66 2 1 C-0.97 3.64 -3.94 6.28 -7 9 C-7.66 8.67 -8.32 8.34 -9 8 C-7.37660195 6.29115995 -5.70680947 4.62553283 -4 3 C-3.34 3 -2.68 3 -2 3 C-2 2.34 -2 1.68 -2 1 C-1.34 0.67 -0.68 0.34 0 0 Z " fill="#D24504" transform="translate(149,42)"/>
<path d="M0 0 C0.33 0.66 0.66 1.32 1 2 C-0.43011973 2.86646667 -1.86940619 3.71781829 -3.3125 4.5625 C-4.51326172 5.27599609 -4.51326172 5.27599609 -5.73828125 6.00390625 C-8 7 -8 7 -11 6 C-7.58983503 3.13546142 -4.09305456 1.65296434 0 0 Z " fill="#BE543B" transform="translate(119,36)"/>
<path d="M0 0 C1.11003253 3.3300976 0.9343162 3.97843441 -0.25 7.125 C-0.62898438 8.18074219 -0.62898438 8.18074219 -1.015625 9.2578125 C-2 11 -2 11 -5 12 C-3.85814266 7.52040582 -2.56984833 3.85477249 0 0 Z " fill="#B9522A" transform="translate(31,14)"/>
<path d="M0 0 C0.99 0 1.98 0 3 0 C2 3 2 3 -0.9375 4.6875 C-4 6 -4 6 -6 6 C-5.67 5.01 -5.34 4.02 -5 3 C-3.68 3 -2.36 3 -1 3 C-0.67 2.01 -0.34 1.02 0 0 Z " fill="#C5351D" transform="translate(65,149)"/>
<path d="M0 0 C0 0.99 0 1.98 0 3 C-4.455 4.485 -4.455 4.485 -9 6 C-8 3 -8 3 -5.0625 1.3125 C-2 0 -2 0 0 0 Z " fill="#ED461B" transform="translate(137,29)"/>
<path d="M0 0 C2.31 0 4.62 0 7 0 C4.88229834 2.32947183 2.96664412 3.88750845 0 5 C-0.99 4.67 -1.98 4.34 -3 4 C-1.68 3.67 -0.36 3.34 1 3 C0.67 2.01 0.34 1.02 0 0 Z " fill="#C33417" transform="translate(52,155)"/>
<path d="M0 0 C0.75 1.625 0.75 1.625 1 4 C-0.9375 7.25 -0.9375 7.25 -3 10 C-3.33 8.68 -3.66 7.36 -4 6 C-3.34 6 -2.68 6 -2 6 C-1.855625 5.195625 -1.71125 4.39125 -1.5625 3.5625 C-1 1 -1 1 0 0 Z " fill="#FCE9D6" transform="translate(26,138)"/>
<path d="M0 0 C2.625 0.375 2.625 0.375 5 1 C4.34 1.66 3.68 2.32 3 3 C1.68 3 0.36 3 -1 3 C-1 3.66 -1 4.32 -1 5 C-1.99 5.33 -2.98 5.66 -4 6 C-2.84826645 3.53199953 -1.95216435 1.95216435 0 0 Z " fill="#E9440A" transform="translate(148,40)"/>
<path d="M0 0 C1 2 1 2 0.0625 5.125 C-0.288125 6.07375 -0.63875 7.0225 -1 8 C-2.32 7.67 -3.64 7.34 -5 7 C-3.35 4.69 -1.7 2.38 0 0 Z " fill="#FAE7CE" transform="translate(184,32)"/>
<path d="M0 0 C1.65 0 3.3 0 5 0 C4.67 0.99 4.34 1.98 4 3 C2.35 3.33 0.7 3.66 -1 4 C-0.67 2.68 -0.34 1.36 0 0 Z " fill="#EA4118" transform="translate(70,144)"/>
<path d="M0 0 C0.33 0.99 0.66 1.98 1 3 C-1.66666667 4.33333333 -4.33333333 5.66666667 -7 7 C-7.66 6.34 -8.32 5.68 -9 5 C-6.03 3.35 -3.06 1.7 0 0 Z " fill="#F6D1C5" transform="translate(94,136)"/>
<path d="M0 0 C0.33 1.32 0.66 2.64 1 4 C-0.98 4.99 -0.98 4.99 -3 6 C-3 6.66 -3 7.32 -3 8 C-3.66 8 -4.32 8 -5 8 C-3.62845496 5.04590299 -2.01136276 2.55991624 0 0 Z " fill="#FCE9D3" transform="translate(166,56)"/>
<path d="M0 0 C0.99 0.33 1.98 0.66 3 1 C0.03 4.96 0.03 4.96 -3 9 C-3 5.30581799 -1.71820705 3.22163822 0 0 Z " fill="#EE8F36" transform="translate(183,27)"/>
<path d="M0 0 C0.33 0.66 0.66 1.32 1 2 C-2.82989106 3.80230168 -5.78121808 4.19622241 -10 4 C-7.80202597 1.80202597 -6.82453855 1.54102483 -3.875 0.875 C-2.59625 0.58625 -1.3175 0.2975 0 0 Z " fill="#FD7F2F" transform="translate(170,11)"/>
<path d="M0 0 C1.32 0.33 2.64 0.66 4 1 C3.34 2.98 2.68 4.96 2 7 C0 5 0 5 -0.125 2.375 C-0.08375 1.59125 -0.0425 0.8075 0 0 Z " fill="#D96B47" transform="translate(169,163)"/>
<path d="M0 0 C0.99 0.33 1.98 0.66 3 1 C-0.465 3.97 -0.465 3.97 -4 7 C-4 5.68 -4 4.36 -4 3 C-3.01 3 -2.02 3 -1 3 C-0.67 2.01 -0.34 1.02 0 0 Z " fill="#F9792D" transform="translate(41,140)"/>
<path d="M0 0 C-5.2734375 3.22265625 -5.2734375 3.22265625 -7 4 C-7.66 3.67 -8.32 3.34 -9 3 C-9 2.01 -9 1.02 -9 0 C-2.25 -1.125 -2.25 -1.125 0 0 Z " fill="#BD3525" transform="translate(71,97)"/>
<path d="M0 0 C0.33 0.99 0.66 1.98 1 3 C-0.65 3.33 -2.3 3.66 -4 4 C-4.33 4.99 -4.66 5.98 -5 7 C-5.66 7 -6.32 7 -7 7 C-5.54744301 3.17053157 -3.57104439 1.87949705 0 0 Z " fill="#FE9840" transform="translate(165,32)"/>
<path d="M0 0 C-1.98 1.32 -3.96 2.64 -6 4 C-6.33 3.34 -6.66 2.68 -7 2 C-7.99 1.67 -8.98 1.34 -10 1 C-8.71073008 0.63720544 -7.41846728 0.28503302 -6.125 -0.0625 C-5.40570313 -0.25972656 -4.68640625 -0.45695312 -3.9453125 -0.66015625 C-2 -1 -2 -1 0 0 Z " fill="#F09C74" transform="translate(146,22)"/>
<path d="M0 0 C2.125 0.9375 2.125 0.9375 4 2 C4 2.33 4 2.66 4 3 C-0.455 3.495 -0.455 3.495 -5 4 C-2 1 -2 1 0 0 Z " fill="#F5A58D" transform="translate(54,158)"/>
<path d="M0 0 C0.99 0.33 1.98 0.66 3 1 C3 3 3 3 1 5.125 C0.34 5.74375 -0.32 6.3625 -1 7 C-1.66 6.67 -2.32 6.34 -3 6 C-2.01 4.02 -1.02 2.04 0 0 Z " fill="#FDF4E8" transform="translate(150,77)"/>
<path d="M0 0 C0.66 0 1.32 0 2 0 C1.43628586 3.26954202 0.50037734 4.82575883 -2 7 C-2.33 6.34 -2.66 5.68 -3 5 C-1.6875 2.375 -1.6875 2.375 0 0 Z " fill="#F38B32" transform="translate(146,75)"/>
<path d="M0 0 C-1.65 0.33 -3.3 0.66 -5 1 C-5 1.66 -5 2.32 -5 3 C-6.65 2.67 -8.3 2.34 -10 2 C-9.67 1.34 -9.34 0.68 -9 0 C-5.65506316 -0.99444068 -3.31044803 -1.10348268 0 0 Z " fill="#E56533" transform="translate(53,45)"/>
</svg>
